# Blender 5.1.2
# www.blender.org
mtllib Arch.mtl
o ARCH
v 1.000000 0.975000 0.500000
v -0.000000 1.000000 1.000000
v -0.000000 0.975000 0.500000
v 1.000000 1.000000 1.000000
v 1.000000 0.970677 0.587791
v -0.000000 0.970677 0.587791
v 0.000000 1.000000 0.000000
v 1.000000 0.957873 0.672208
v -0.000000 0.957873 0.672208
v 1.000000 1.000000 0.000000
v 1.000000 0.937081 0.750007
v -0.000000 0.937081 0.750007
v 1.000000 0.909099 0.818198
v -0.000000 0.909099 0.818198
v 1.000000 0.875003 0.874161
v -0.000000 0.875003 0.874161
v 1.000000 0.836104 0.915746
v -0.000000 0.836104 0.915746
v 1.000000 0.836104 0.084254
v -0.000000 0.836104 0.084254
v 1.000000 0.875003 0.125839
v -0.000000 0.875003 0.125839
v 1.000000 0.909099 0.181802
v -0.000000 0.909099 0.181802
v 1.000000 0.937081 0.249993
v -0.000000 0.937081 0.249993
v 1.000000 0.957873 0.327792
v -0.000000 0.957873 0.327792
v 1.000000 0.970677 0.412209
v -0.000000 0.970677 0.412209
v 0.500000 0.947477 0.288893
v 0.500000 0.972838 0.543895
v 0.500000 0.855554 0.105046
v 0.500000 0.947477 0.711107
v 0.500000 0.964275 0.629999
v 0.500000 0.923090 0.215898
v 0.500000 0.964275 0.370001
v 0.500000 0.815000 0.071450
v 0.500000 0.892051 0.153820
v 0.500000 0.923090 0.784102
v 0.000000 0.796144 0.000000
v -0.000000 0.791993 0.009382
v -0.000000 0.797338 1.000000
v -0.000000 0.794450 0.984351
v 1.000000 0.796145 0.000000
v 1.000000 0.797338 1.000000
v 1.000000 0.797265 0.984351
v 1.000000 0.794809 0.012197
vn -1.0000 -0.0000 -0.0000
vn -0.0000 -0.0000 -1.0000
vn 1.0000 -0.0000 -0.0000
vn -0.0000 1.0000 -0.0000
vn 0.0107 -0.7282 0.6853
vn -0.0000 -0.9988 -0.0492
vn -0.0623 0.0623 -0.9961
vn -0.0000 -0.9887 -0.1500
vn 0.4472 0.8944 -0.0000
vn -0.0000 -0.9661 -0.2582
vn -0.0000 -0.9251 -0.3796
vn -0.0000 -0.8540 -0.5203
vn -0.0000 -0.7303 -0.6831
vn 0.0024 -0.8548 -0.5190
vn -0.0427 -0.9989 -0.0196
vn -0.0000 -0.5187 0.8550
vn -0.0000 -0.7303 0.6831
vn -0.0000 -0.8540 0.5203
vn -0.0000 -0.0624 0.9981
vn -0.0000 -0.9251 0.3796
vn -0.0000 -0.9661 0.2582
vn 0.0408 -0.4899 0.8708
vn -0.0000 -0.9887 0.1500
vn -0.0000 -0.9988 0.0492
vn -0.0000 -0.0000 1.0000
vn -0.0000 -0.8702 -0.4926
vn 0.0010 -0.8616 0.5076
vn 0.0239 -0.8674 0.4971
vt 0.996732 0.995925
vt 0.871433 0.871465
vt 0.981150 0.791257
vt 1.000937 0.793298
vt 0.002172 0.996902
vt 0.002172 0.793298
vt 0.998029 0.792939
vt 0.998029 0.995925
vt 0.872727 0.871462
vt -0.000933 0.999834
vt 1.001382 -0.002480
vt -0.000933 -0.002480
vt 0.500224 -0.002480
vt 0.588218 0.999834
vt 0.544221 0.498677
vt 0.500224 0.999834
vt 0.588218 -0.002480
vt 0.630525 0.498677
vt 0.672831 0.999834
vt 0.672831 -0.002480
vt 0.711820 0.498677
vt 0.750810 0.999834
vt 0.750810 -0.002480
vt 0.819159 -0.002480
vt 0.784984 0.498677
vt 0.819159 0.999834
vt 0.875252 -0.002480
vt 0.875252 0.999834
vt 0.916932 -0.002480
vt 0.916932 0.999834
vt 0.985696 -0.002480
vt 0.985697 0.999834
vt 0.011293 -0.002480
vt 0.070683 0.498677
vt 0.083516 0.999834
vt 0.083516 -0.002480
vt 0.104357 0.498677
vt 0.125197 -0.002480
vt 0.125197 0.999834
vt 0.181290 -0.002480
vt 0.153244 0.498677
vt 0.181290 0.999834
vt 0.249639 0.999834
vt 0.215465 0.498677
vt 0.249639 -0.002480
vt 0.288629 0.498677
vt 0.327618 -0.002480
vt 0.327618 0.999834
vt 0.412231 0.999834
vt 0.369924 0.498677
vt 0.412231 -0.002480
vt 0.002294 0.995925
vt 0.328688 0.953978
vt 0.412745 0.966727
vt 0.002119 0.997878
vt 0.997742 0.796103
vt 0.997742 0.997878
vt 0.001020 0.995925
vt 0.327407 0.953979
vt 0.411462 0.966728
vt 0.996732 0.794132
vt 0.815710 0.905414
vt 0.912839 0.832732
vt 1.000937 0.996902
vt 0.914134 0.832728
vt 0.985883 0.791609
vt 0.817002 0.905412
vt 1.001382 0.999834
vt 0.008471 0.999834
vt 0.749102 0.933274
vt 0.002294 0.794128
vt 0.017876 0.794055
vt 0.086189 0.832728
vt 0.127596 0.871462
vt 0.671634 0.953978
vt 0.587577 0.966727
vt 0.183321 0.905412
vt 0.251221 0.933274
vt 0.500161 0.971032
vt 0.002119 0.796103
vt 0.747811 0.933276
vt 0.001020 0.792944
vt 0.010362 0.788811
vt 0.084913 0.832732
vt 0.126319 0.871465
vt 0.670345 0.953979
vt 0.586290 0.966728
vt 0.182043 0.905414
vt 0.249942 0.933276
vt 0.498876 0.971032
s 0
usemtl Material
f 2/1/1 16/2/1 44/3/1
f 41/4/2 10/5/2 45/6/2
f 45/7/3 10/8/3 21/9/3
f 7/10/4 4/11/4 10/12/4
f 1/13/5 6/14/5 32/15/5
f 6/14/6 3/16/6 32/15/6
f 5/17/7 35/18/7 9/19/7
f 8/20/8 9/19/8 35/18/8
f 8/20/9 34/21/9 12/22/9
f 11/23/10 12/22/10 34/21/10
f 11/23/11 13/24/11 40/25/11
f 14/26/11 12/22/11 40/25/11
f 14/26/12 15/27/12 16/28/12
f 16/28/13 17/29/13 18/30/13
f 18/30/14 47/31/14 44/32/14
f 48/33/15 38/34/15 20/35/15
f 19/36/16 20/35/16 38/34/16
f 20/35/17 19/36/17 33/37/17
f 21/38/17 22/39/17 33/37/17
f 22/39/4 23/40/4 39/41/4
f 23/40/18 24/42/18 39/41/18
f 23/40/19 26/43/19 36/44/19
f 26/43/20 24/42/20 36/44/20
f 26/43/21 25/45/21 31/46/21
f 27/47/21 28/48/21 31/46/21
f 27/47/22 30/49/22 37/50/22
f 30/49/23 28/48/23 37/50/23
f 1/13/24 30/49/24 29/51/24
f 4/52/3 8/53/3 5/54/3
f 2/55/25 46/56/25 4/57/25
f 7/58/1 28/59/1 30/60/1
f 44/3/1 43/61/1 2/1/1
f 2/1/1 14/62/1 16/2/1
f 16/2/1 18/63/1 44/3/1
f 41/4/2 7/64/2 10/5/2
f 19/65/3 48/66/3 45/7/3
f 10/8/3 23/67/3 21/9/3
f 21/9/3 19/65/3 45/7/3
f 7/10/4 2/68/4 4/11/4
f 32/15/6 3/16/6 1/13/6
f 1/13/6 5/17/6 6/14/6
f 9/19/8 6/14/8 5/17/8
f 5/17/8 8/20/8 35/18/8
f 12/22/10 9/19/10 8/20/10
f 8/20/10 11/23/10 34/21/10
f 40/25/11 12/22/11 11/23/11
f 13/24/11 14/26/11 40/25/11
f 14/26/12 13/24/12 15/27/12
f 16/28/13 15/27/13 17/29/13
f 18/30/26 17/29/26 47/31/26
f 20/35/27 42/69/27 48/33/27
f 48/33/28 19/36/28 38/34/28
f 19/36/17 21/38/17 33/37/17
f 33/37/17 22/39/17 20/35/17
f 22/39/18 21/38/18 23/40/18
f 39/41/18 24/42/18 22/39/18
f 36/44/20 24/42/20 23/40/20
f 23/40/20 25/45/20 26/43/20
f 25/45/21 27/47/21 31/46/21
f 31/46/21 28/48/21 26/43/21
f 37/50/23 28/48/23 27/47/23
f 27/47/23 29/51/23 30/49/23
f 1/13/24 3/16/24 30/49/24
f 25/70/3 23/67/3 10/8/3
f 4/52/3 46/71/3 47/72/3
f 47/72/3 17/73/3 15/74/3
f 4/52/3 47/72/3 15/74/3
f 27/75/3 25/70/3 10/8/3
f 29/76/3 27/75/3 10/8/3
f 4/52/3 15/74/3 13/77/3
f 4/52/3 13/77/3 11/78/3
f 29/76/3 10/8/3 4/52/3
f 1/79/3 29/76/3 4/52/3
f 4/52/3 11/78/3 8/53/3
f 5/54/3 1/79/3 4/52/3
f 2/55/25 43/80/25 46/56/25
f 12/81/1 14/62/1 2/1/1
f 7/58/1 41/82/1 42/83/1
f 42/83/1 20/84/1 22/85/1
f 7/58/1 42/83/1 22/85/1
f 9/86/1 12/81/1 2/1/1
f 6/87/1 9/86/1 2/1/1
f 7/58/1 22/85/1 24/88/1
f 7/58/1 24/88/1 26/89/1
f 6/87/1 2/1/1 7/58/1
f 3/90/1 6/87/1 7/58/1
f 7/58/1 26/89/1 28/59/1
f 30/60/1 3/90/1 7/58/1
