# Blender 5.1.2
# www.blender.org
mtllib Balcony.mtl
o BALCONY
v 1.000000 1.000000 0.000000
v 1.000000 1.000000 1.000000
v 0.000000 1.000000 0.000000
v 0.000000 0.000000 0.000000
v 0.000000 1.000000 1.000000
v 0.000000 0.000000 1.000000
v 1.000000 0.655916 0.000000
v 0.344084 0.000000 0.000000
v 0.853568 0.372196 0.000000
v 0.627804 0.146432 0.000000
v 0.344084 0.000000 1.000000
v 1.000000 0.655916 1.000000
v 0.627804 0.146432 1.000000
v 0.853568 0.372196 1.000000
vn -0.0000 1.0000 -0.0000
vn -1.0000 -0.0000 -0.0000
vn 0.4586 -0.8886 -0.0000
vn 0.7071 -0.7071 -0.0000
vn 0.8886 -0.4586 -0.0000
vn -0.0000 -0.0000 -1.0000
vn 1.0000 -0.0000 -0.0000
vn -0.0000 -1.0000 -0.0000
vn -0.0000 -0.0000 1.0000
vt 0.055317 0.972850
vt 0.058971 0.016051
vt 0.911382 0.022477
vt 0.941743 0.979799
vt 0.000000 0.000000
vt 1.000000 0.000000
vt 1.000000 1.000000
vt 0.000000 1.000000
vt 0.988789 0.011197
vt 0.988791 0.954830
vt 0.029869 0.967874
vt 0.042481 0.623166
vt 0.193868 0.346989
vt 0.413612 0.135182
vt 0.678306 0.004257
vt 0.940445 0.108023
vt 0.943537 0.917800
vt 0.015715 0.924948
vt 0.036808 0.078211
vt 0.942444 0.045612
vt 0.945813 0.956347
vt 0.012718 0.987312
vt 0.014253 0.076253
vt 0.364540 0.008292
vt 0.634752 0.145943
vt 0.850883 0.358834
vt 0.992351 0.627370
vt 0.994520 0.954326
vt 0.037805 0.953058
vt 0.037832 0.008334
s 0
usemtl Material
f 1/1/1 3/2/1 5/3/1 2/4/1
f 6/5/2 5/6/2 3/7/2 4/8/2
f 11/5/3 8/6/3 10/7/3 13/8/3
f 13/5/4 10/6/4 9/7/4 14/8/4
f 14/5/5 9/6/5 7/7/5 12/8/5
f 4/9/6 3/10/6 1/11/6 7/12/6 9/13/6 10/14/6 8/15/6
f 7/16/7 1/17/7 2/18/7 12/19/7
f 4/20/8 8/21/8 11/22/8 6/23/8
f 11/24/9 13/25/9 14/26/9 12/27/9 2/28/9 5/29/9 6/30/9
