# Blender 5.1.2
# www.blender.org
mtllib BigArch.mtl
o BIGARCH
v 0.000000 0.000000 1.000000
v 0.800000 0.800000 1.000000
v 1.000000 1.000000 1.000000
v 0.000000 1.000000 1.000000
v 0.700000 0.600000 1.000000
v 0.200000 0.300000 1.000000
v 0.700000 0.600000 0.000000
v 0.200000 0.300000 0.000000
v 0.800000 0.800000 0.000000
v 1.000000 1.000000 0.000000
v 0.000000 1.000000 0.000000
v 0.000000 0.000000 0.000000
v 0.800000 0.800000 1.000000
v 0.700000 0.600000 1.000000
v 1.000000 1.000000 1.000000
v 0.800000 0.800000 0.000000
v 0.700000 0.600000 0.000000
v 1.000000 1.000000 0.000000
vn -0.0000 -0.0000 1.0000
vn -0.0000 -0.0000 -1.0000
vn 0.5145 -0.8575 -0.0000
vn 0.8321 -0.5547 -0.0000
vn -0.0000 1.0000 -0.0000
vn -1.0000 -0.0000 -0.0000
vn 0.8944 -0.4472 -0.0000
vn 0.7071 -0.7071 -0.0000
vt 0.800068 0.800546
vt 0.000102 1.000834
vt 0.200094 0.299823
vt 0.798190 0.300608
vt 0.997945 0.998881
vt 0.198925 0.799375
vt 0.004529 0.598678
vt 0.999549 0.300172
vt 0.999549 0.598678
vt 0.004529 0.001665
vt 0.004529 0.300171
vt 0.993669 0.000344
vt 0.003032 0.990981
vt 0.003032 0.000344
vt 0.997465 0.995709
vt 0.001206 -0.000550
vt 0.997465 -0.000550
vt 0.000000 0.000000
vt 0.999549 0.797682
vt 0.004529 0.797682
vt 0.999549 0.996686
vt 0.004529 0.996686
vt 0.700072 0.600256
vt 1.000059 1.000834
vt 0.000102 -0.000611
vt 0.298803 0.599868
vt 0.997945 0.001347
vt -0.000829 0.998881
vt 0.999549 0.001666
vt 0.993669 0.990981
vt 0.001206 0.995709
s 0
usemtl Material.001
f 2/1/1 4/2/1 6/3/1
f 8/4/2 11/5/2 9/6/2
f 5/7/3 8/8/3 7/9/3
f 1/10/4 8/8/4 6/11/4
f 3/12/5 11/13/5 4/14/5
f 5/7/5 17/9/5 14/7/5
f 4/15/6 12/16/6 1/17/6
f 10/18/5 15/18/5 18/18/5
f 14/7/7 16/19/7 13/20/7
f 13/20/8 18/21/8 15/22/8
f 3/18/5 13/18/5 15/18/5
f 7/18/5 16/18/5 17/18/5
f 2/18/5 14/18/5 13/18/5
f 9/18/5 18/18/5 16/18/5
f 6/3/1 5/23/1 2/1/1
f 2/1/1 3/24/1 4/2/1
f 4/2/1 1/25/1 6/3/1
f 9/6/2 7/26/2 8/4/2
f 8/4/2 12/27/2 11/5/2
f 11/5/2 10/28/2 9/6/2
f 5/7/3 6/11/3 8/8/3
f 1/10/4 12/29/4 8/8/4
f 3/12/5 10/30/5 11/13/5
f 5/7/5 7/9/5 17/9/5
f 4/15/6 11/31/6 12/16/6
f 10/18/5 3/18/5 15/18/5
f 14/7/7 17/9/7 16/19/7
f 13/20/8 16/19/8 18/21/8
f 3/18/5 2/18/5 13/18/5
f 7/18/5 9/18/5 16/18/5
f 2/18/5 5/18/5 14/18/5
f 9/18/5 10/18/5 18/18/5
