# Blender 5.1.2
# www.blender.org
mtllib CornerWedge.mtl
o CORNERWEDGE
v 1.000000 1.000000 0.000000
v 0.700000 0.000000 0.200000
v 0.912450 1.000000 0.521169
v 1.000000 0.000000 0.000000
v 0.797545 0.000000 0.102840
v 1.000000 1.000000 0.424009
v 0.000000 1.000047 0.000000
v 0.891342 0.000000 0.082188
v 0.000000 0.000000 0.000000
v 0.000000 1.000000 1.000000
v 1.000000 0.000000 0.000000
v 0.000000 0.000000 1.000000
v 1.000000 1.000000 0.319053
v 0.200000 0.000000 0.700000
v 0.459369 1.000000 1.000000
v 0.468977 1.000000 0.916586
v 0.238060 0.000000 0.508658
v 0.497429 1.000000 0.822790
v 0.284265 0.000000 0.422215
v 0.543634 1.000000 0.736346
v 0.346447 0.000000 0.346447
v 0.605816 1.000000 0.660578
v 0.422215 0.000000 0.284265
v 0.681584 1.000000 0.598397
v 0.508658 0.000000 0.238060
v 0.768028 1.000000 0.552192
v 0.602455 0.000000 0.209607
v 0.861824 0.990711 0.523739
v 0.013945 1.000000 0.727870
v 0.000000 0.000000 1.000000
v 0.015627 0.043247 0.993264
vn -0.0000 -0.0000 -1.0000
vn 0.6961 -0.3493 0.6272
vn 0.6553 -0.3758 0.6553
vn 0.9062 -0.3214 0.2749
vn -0.0000 -0.0000 1.0000
vn -0.0000 1.0000 -0.0000
vn 0.2025 -0.3364 0.9197
vn 0.4378 -0.3708 0.8190
vn 0.2400 -0.3499 0.9055
vn 0.0928 -0.3229 0.9419
vn 0.7868 -0.3252 0.5245
vn -0.0000 -1.0000 -0.0000
vn -1.0000 -0.0000 -0.0000
vn 0.6033 -0.0000 0.7975
vn 0.6618 -0.3474 0.6644
vn 0.5875 -0.3773 0.7159
vn 0.8253 -0.3526 0.4411
vn 0.7224 -0.3558 0.5929
vn -0.1838 0.9797 -0.0796
vn 0.1391 0.9806 0.1384
vn 0.2717 -0.3519 0.8957
vn 0.1073 -0.3246 0.9397
vn 0.9378 -0.2927 0.1865
vn 0.9038 -0.4152 0.1041
vn 0.9941 -0.1080 -0.0000
vt 0.996838 0.008700
vt 0.005401 0.998203
vt 0.007335 0.008700
vt 0.765255 0.028703
vt 0.872225 0.975791
vt 0.755316 0.978745
vt 0.397570 0.918570
vt 0.460461 0.051262
vt 0.584932 0.050900
vt 0.397925 0.047253
vt 0.314869 0.931981
vt 0.230067 0.955488
vt 0.432566 1.001049
vt 0.008663 1.001049
vt 0.008663 -0.017042
vt 0.007042 0.023482
vt 0.668843 0.414775
vt 0.997599 0.686948
vt 0.861625 0.028350
vt 0.930713 0.018879
vt 0.558651 0.919775
vt 0.646296 0.046518
vt 0.637933 0.934453
vt 0.706595 0.039189
vt 0.716855 0.950179
vt 0.005031 0.018443
vt 0.274034 0.030258
vt 0.209515 0.688082
vt 0.013546 0.982036
vt 0.013546 0.002190
vt 0.998412 0.997119
vt 0.001213 -0.000079
vt 0.998412 -0.000079
vt 0.913715 -0.002291
vt 0.995857 -0.002291
vt 0.995857 0.997143
vt 0.996838 0.998249
vt 0.478671 0.914568
vt 0.522889 0.052466
vt 0.980989 0.988039
vt 0.004757 0.997810
vt 0.452333 0.023482
vt 0.461694 0.104754
vt 0.489416 0.196143
vt 0.893782 0.490020
vt 0.988823 0.584686
vt 0.844456 0.487517
vt 0.534435 0.280367
vt 0.595020 0.354190
vt 0.753067 0.459794
vt 0.155372 0.984452
vt 0.795017 0.102957
vt 0.699438 0.198159
vt 0.603859 0.207573
vt 0.511952 0.235452
vt 0.993392 0.002190
vt 0.970942 0.133215
vt 0.886923 0.082722
vt 0.427251 0.280726
vt 0.353010 0.341654
vt 0.292082 0.415895
vt 0.187500 0.500000
vt 0.015844 0.982036
vt 0.001213 0.997166
vt 0.676985 0.997143
vt 0.572088 0.997143
s 0
usemtl Material
f 9/1/1 1/2/1 4/3/1
f 2/4/2 6/5/2 3/6/2
f 20/7/3 19/8/3 23/9/3
f 17/10/4 18/11/4 16/12/4
f 15/13/5 10/14/5 30/15/5
f 10/16/6 24/17/6 13/18/6
f 6/5/7 5/19/7 8/20/7
f 24/21/8 25/22/8 26/23/8
f 26/23/9 27/24/9 28/25/9
f 2/4/10 28/25/10 27/24/10
f 16/12/11 30/26/11 14/27/11
f 14/28/12 30/29/12 9/30/12
f 10/31/13 9/32/13 12/33/13
f 8/34/14 11/35/14 1/36/14
f 9/1/1 7/37/1 1/2/1
f 2/4/15 5/19/15 6/5/15
f 23/9/16 24/21/16 22/38/16
f 20/7/17 18/11/17 19/8/17
f 23/9/18 22/38/18 20/7/18
f 19/8/12 21/39/12 23/9/12
f 17/10/17 19/8/17 18/11/17
f 1/40/6 7/41/6 10/16/6
f 10/16/6 15/42/6 16/43/6
f 10/16/6 16/43/6 18/44/6
f 13/18/6 1/40/6 10/16/6
f 3/45/6 6/46/6 13/18/6
f 28/47/19 3/45/19 13/18/19
f 10/16/6 18/44/6 20/48/6
f 10/16/6 20/48/6 22/49/6
f 26/50/20 28/47/20 13/18/20
f 10/16/6 22/49/6 24/17/6
f 24/17/6 26/50/6 13/18/6
f 24/21/8 23/9/8 25/22/8
f 26/23/21 25/22/21 27/24/21
f 2/4/22 3/6/22 28/25/22
f 14/27/23 17/10/23 16/12/23
f 16/12/24 15/51/24 30/26/24
f 5/52/12 2/53/12 27/54/12
f 5/52/12 27/54/12 25/55/12
f 4/56/6 11/57/6 8/58/6
f 4/56/12 8/58/12 5/52/12
f 4/56/12 5/52/12 25/55/12
f 9/30/12 4/56/12 25/55/12
f 9/30/12 25/55/12 23/59/12
f 9/30/12 23/59/12 21/60/12
f 9/30/12 21/60/12 19/61/12
f 9/30/12 19/61/12 17/62/12
f 9/30/12 17/62/12 14/28/12
f 30/29/6 12/63/6 9/30/6
f 10/31/13 7/64/13 9/32/13
f 12/33/6 30/33/6 10/31/6
f 1/36/6 13/65/6 6/66/6
f 1/36/25 6/66/25 8/34/25
f 11/35/6 4/35/6 1/36/6
l 10 29
l 15 31
