# Blender 5.1.2
# www.blender.org
mtllib Crennel.mtl
o CRENNEL
v 1.000000 0.000000 0.500000
v 1.000000 0.000000 1.000000
v 0.000000 0.000000 0.500000
v 0.000000 0.000000 1.000000
v 0.758333 0.500000 1.000000
v 0.258333 0.500000 1.000000
v 0.258333 0.500000 0.500000
v 0.758333 0.500000 0.500000
v 0.258333 0.699406 1.000000
v 0.000000 0.699406 1.000000
v 1.000000 0.699406 0.500000
v 1.000000 0.699406 1.000000
v 0.000000 0.699406 0.500000
v 0.758333 0.699406 0.500000
v 0.758333 0.699406 1.000000
v 0.258333 0.699406 0.500000
vn 1.0000 -0.0000 -0.0000
vn -0.0000 -0.0000 -1.0000
vn -0.0000 -1.0000 -0.0000
vn -1.0000 -0.0000 -0.0000
vn -0.0000 -0.0000 1.0000
vn -0.0000 1.0000 -0.0000
vt 0.997400 0.998822
vt 0.006471 0.002016
vt 0.997400 0.002016
vt 0.240647 0.714249
vt 0.001039 0.008249
vt 0.992522 0.008249
vt 1.000000 0.000000
vt 0.000000 1.000000
vt 0.000000 0.000000
vt 0.997477 0.994055
vt 0.006813 0.023843
vt 0.997477 0.023843
vt 0.261929 0.715003
vt 0.005023 0.000758
vt 0.999499 0.000758
vt 0.008745 0.992443
vt 0.264547 0.002386
vt 0.264547 0.992443
vt 0.759646 0.992443
vt 0.998944 0.002386
vt 0.998944 0.992443
vt 0.006471 0.998822
vt 0.240647 0.995809
vt 0.001039 0.995809
vt 0.992522 0.995809
vt 0.736389 0.995809
vt 0.736389 0.714249
vt 1.000000 1.000000
vt 0.006813 0.994055
vt 0.261929 0.999853
vt 0.005023 0.999853
vt 0.999499 0.999853
vt 0.759167 0.999853
vt 0.759167 0.715003
vt 0.008745 0.002386
vt 0.759646 0.002386
s 0
usemtl Material
f 11/1/1 2/2/1 1/3/1
f 8/4/2 1/5/2 3/6/2
f 2/7/3 3/8/3 1/9/3
f 10/10/4 3/11/4 4/12/4
f 6/13/5 4/14/5 2/15/5
f 13/16/6 9/17/6 16/18/6
f 14/19/6 12/20/6 11/21/6
f 7/7/1 9/8/1 6/9/1
f 5/7/4 14/8/4 8/9/4
f 6/17/6 8/19/6 7/18/6
f 11/1/1 12/22/1 2/2/1
f 8/4/2 14/23/2 11/24/2
f 3/6/2 13/25/2 16/26/2
f 3/6/2 16/26/2 7/27/2
f 8/4/2 11/24/2 1/5/2
f 3/6/2 7/27/2 8/4/2
f 2/7/3 4/28/3 3/8/3
f 10/10/4 13/29/4 3/11/4
f 6/13/5 9/30/5 10/31/5
f 2/15/5 12/32/5 15/33/5
f 2/15/5 15/33/5 5/34/5
f 6/13/5 10/31/5 4/14/5
f 2/15/5 5/34/5 6/13/5
f 13/16/6 10/35/6 9/17/6
f 14/19/6 15/36/6 12/20/6
f 7/7/1 16/28/1 9/8/1
f 5/7/4 15/28/4 14/8/4
f 6/17/6 5/36/6 8/19/6
