# Blender 5.1.2
# www.blender.org
mtllib ExtrudedWedge.mtl
o EXTRUDEDWEDGE
v 0.000000 0.000000 0.000000
v 0.000000 0.000000 0.250000
v 0.250000 0.000000 0.000000
v 0.187500 0.000000 0.187500
v 0.250000 1.000000 0.000000
v 0.000000 1.000000 0.000000
v 0.000000 1.000000 0.250000
v 0.187500 1.000000 0.187500
vn -0.0000 -1.0000 -0.0000
vn -0.0000 1.0000 -0.0000
vn 0.3162 -0.0000 0.9487
vn -0.0000 -0.0000 -1.0000
vn 0.9487 -0.0000 0.3162
vn -1.0000 -0.0000 -0.0000
vt 0.000000 0.000000
vt 1.000000 1.000000
vt 0.000000 1.000000
vt 0.330367 -0.002915
vt 0.004647 0.999694
vt 0.004647 -0.002915
vt 1.000000 0.000000
vt 0.643300 0.005831
vt 0.329872 0.996765
vt 0.329872 0.005831
vt 0.330367 0.999694
vt 0.643300 0.996765
s 0
usemtl Material.001
f 1/1/1 4/2/1 2/3/1
f 6/1/2 8/2/2 5/3/2
f 4/4/3 7/5/3 2/6/3
f 1/7/4 5/3/4 3/1/4
f 3/8/5 8/9/5 4/10/5
f 2/7/6 6/3/6 1/1/6
f 1/1/1 3/7/1 4/2/1
f 6/1/2 7/7/2 8/2/2
f 4/4/3 8/11/3 7/5/3
f 1/7/4 6/2/4 5/3/4
f 3/8/5 5/12/5 8/9/5
f 2/7/6 7/2/6 6/3/6
