# Blender 5.1.2
# www.blender.org
mtllib Grille.mtl
o GRILLE
v 1.000000 1.000000 0.000000
v 0.580000 0.100000 0.000000
v 0.260000 0.100000 0.000000
v 1.000000 0.000000 0.000000
v 0.740000 0.100000 1.000000
v 0.580000 0.100000 1.000000
v 1.000000 1.000000 1.000000
v 1.000000 0.000000 1.000000
v 0.420000 0.100000 0.000000
v 0.000000 1.000000 0.000000
v 0.420000 0.100000 1.000000
v 0.260000 0.100000 1.000000
v 0.000000 0.000000 0.000000
v 0.740000 0.100000 0.000000
v 0.000000 1.000000 1.000000
v 0.000000 0.000000 1.000000
v 0.100000 0.100000 0.000000
v 0.900000 0.900000 0.000000
v 0.100000 0.900000 0.000000
v 0.900000 0.100000 0.000000
v 0.900000 0.900000 1.000000
v 0.100000 0.100000 1.000000
v 0.100000 0.900000 1.000000
v 0.900000 0.100000 1.000000
v 0.740000 0.100000 0.829658
v 0.580000 0.100000 0.829658
v 0.420000 0.100000 0.829658
v 0.260000 0.100000 0.829658
v 0.740000 0.100000 0.146999
v 0.580000 0.100000 0.146999
v 0.420000 0.100000 0.146999
v 0.260000 0.100000 0.146999
v 0.420000 0.907330 0.829658
v 0.420000 0.907330 1.000000
v 0.260000 0.907330 0.829658
v 0.260000 0.907330 1.000000
v 0.740000 0.906713 0.829658
v 0.740000 0.906713 1.000000
v 0.580000 0.906713 0.829658
v 0.580000 0.906713 1.000000
v 0.580000 0.894099 0.000000
v 0.740000 0.894099 0.000000
v 0.740000 0.894099 0.146999
v 0.580000 0.894099 0.146999
v 0.260000 0.898762 0.000000
v 0.420000 0.898762 0.000000
v 0.420000 0.898762 0.146999
v 0.260000 0.898762 0.146999
vn -0.0000 1.0000 -0.0000
vn -0.0000 -0.0000 1.0000
vn -1.0000 -0.0000 -0.0000
vn 1.0000 -0.0000 -0.0000
vn -0.0000 -0.0000 -1.0000
vn -0.0000 -1.0000 -0.0000
vt 0.000880 0.996574
vt 0.998259 -0.000805
vt 0.998259 0.996574
vt 0.997533 0.997501
vt 0.004786 0.997501
vt 0.898259 0.898226
vt 0.998833 0.999454
vt 0.000018 0.000639
vt 0.998833 0.000639
vt 0.996580 0.998478
vt 0.000834 0.002732
vt 0.996580 0.002732
vt 0.997180 0.995548
vt -0.000028 0.995548
vt 0.897459 0.895827
vt 0.002080 0.010691
vt 0.981589 0.992374
vt 0.002080 0.992374
vt 0.997533 0.004754
vt 0.421740 0.104028
vt 0.262900 0.104028
vt 0.998357 -0.001740
vt 0.000880 0.995738
vt 0.000880 -0.001740
vt 0.790254 0.021133
vt 0.675689 0.978167
vt 0.675689 0.021133
vt 0.997180 -0.001660
vt 0.578353 0.098061
vt 0.418800 0.098061
vt 0.991807 0.995507
vt 0.004033 0.009898
vt 0.004033 0.995507
vt 0.792686 0.202315
vt 0.761710 0.868257
vt 0.600545 0.871334
vt 0.002189 0.005421
vt 0.988934 0.990486
vt 0.988934 0.005421
vt 0.606825 0.001996
vt 0.531659 0.992469
vt 0.529436 0.003834
vt 0.225000 0.728707
vt 0.175000 0.750000
vt 0.225000 0.750000
vt 0.143651 0.021133
vt 0.010893 0.988433
vt 0.010893 0.021133
vt 0.034672 0.020737
vt 0.193732 0.986686
vt 0.193732 0.020737
vt 0.739419 0.104028
vt 0.580580 0.904891
vt 0.580580 0.104028
vt 0.325000 0.728707
vt 0.275000 0.750000
vt 0.325000 0.750000
vt 0.010893 0.987694
vt 0.452521 0.005661
vt 0.366789 0.989081
vt 0.376077 0.007476
vt 0.193732 0.985948
vt 0.325000 0.625000
vt 0.275000 0.643375
vt 0.325000 0.643375
vt 0.675689 0.972580
vt 0.610202 0.006851
vt 0.549656 0.980083
vt 0.544263 0.007171
vt 0.831183 0.020737
vt 0.968447 0.970855
vt 0.968447 0.020737
vt 0.225000 0.625000
vt 0.175000 0.643375
vt 0.225000 0.643375
vt 0.478381 0.007491
vt 0.401842 0.986270
vt 0.412556 0.007810
vt 0.968447 0.976434
vt 0.000880 -0.000805
vt 0.898259 0.104028
vt 0.004786 0.004754
vt 0.104061 0.104028
vt 0.104061 0.898226
vt 0.000018 0.999454
vt 0.000834 0.998478
vt 0.897459 0.098061
vt -0.000028 -0.001660
vt 0.099693 0.098061
vt 0.099693 0.895827
vt 0.981589 0.010691
vt 0.421740 0.905503
vt 0.262900 0.905503
vt 0.998357 0.995738
vt 0.790254 0.978167
vt 0.737906 0.098061
vt 0.737906 0.894592
vt 0.578353 0.894592
vt 0.259246 0.098061
vt 0.418800 0.889942
vt 0.259246 0.889942
vt 0.991807 0.009898
vt 0.279016 0.877474
vt 0.288832 0.994619
vt 0.133530 0.997490
vt 0.008641 0.015838
vt 0.206430 0.011175
vt 0.223520 0.215132
vt 0.412871 0.210868
vt 0.404624 0.006503
vt 0.603224 0.001821
vt 0.600183 0.988862
vt 0.444383 0.991742
vt 0.439648 0.874407
vt 0.602593 0.206595
vt 0.802231 -0.002870
vt 1.001646 -0.007571
vt 0.912536 0.983086
vt 0.756234 0.985976
vt 0.002189 0.990486
vt 0.614918 0.993772
vt 0.175000 0.728707
vt 0.143651 0.988433
vt 0.034672 0.986686
vt 0.739419 0.904891
vt 0.275000 0.728707
vt 0.143651 0.987694
vt 0.448951 0.990364
vt 0.034672 0.985948
vt 0.275000 0.625000
vt 0.790254 0.972580
vt 0.623635 0.980193
vt 0.831183 0.970855
vt 0.175000 0.625000
vt 0.475731 0.986383
vt 0.831183 0.976434
s 0
usemtl Material
f 10/1/1 7/2/1 1/3/1
f 7/4/2 15/5/2 21/6/2
f 15/7/3 13/8/3 16/9/3
f 1/10/4 8/11/4 4/12/4
f 10/13/5 1/14/5 19/15/5
f 22/16/4 19/17/4 23/18/4
f 8/19/2 11/20/2 12/21/2
f 4/22/6 16/23/6 13/24/6
f 9/25/4 47/26/4 31/27/4
f 13/28/5 9/29/5 2/30/5
f 18/31/3 24/32/3 21/33/3
f 25/34/1 29/35/1 30/36/1
f 23/37/6 18/38/6 21/39/6
f 28/40/5 33/41/5 27/42/5
f 33/43/1 36/44/1 34/45/1
f 27/46/4 34/47/4 11/48/4
f 12/49/3 35/50/3 28/51/3
f 5/52/2 40/53/2 6/54/2
f 37/55/1 40/56/1 38/57/1
f 25/46/4 38/58/4 5/48/4
f 26/59/5 37/60/5 25/61/5
f 6/49/3 39/62/3 26/51/3
f 42/63/1 44/64/1 43/65/1
f 14/25/4 43/66/4 29/27/4
f 29/67/2 44/68/2 30/69/2
f 30/70/3 41/71/3 2/72/3
f 46/73/1 48/74/1 47/75/1
f 31/76/2 48/77/2 32/78/2
f 32/70/3 45/79/3 3/72/3
f 10/1/1 15/80/1 7/2/1
f 21/6/2 24/81/2 8/19/2
f 15/5/2 16/82/2 22/83/2
f 15/5/2 22/83/2 23/84/2
f 21/6/2 8/19/2 7/4/2
f 15/5/2 23/84/2 21/6/2
f 15/7/3 10/85/3 13/8/3
f 1/10/4 7/86/4 8/11/4
f 17/87/5 13/28/5 10/13/5
f 1/14/5 4/88/5 20/89/5
f 1/14/5 20/89/5 18/90/5
f 19/15/5 17/87/5 10/13/5
f 1/14/5 18/90/5 19/15/5
f 22/16/4 17/91/4 19/17/4
f 22/83/2 16/82/2 8/19/2
f 8/19/2 24/81/2 5/52/2
f 8/19/2 5/52/2 6/54/2
f 12/21/2 22/83/2 8/19/2
f 34/92/2 36/93/2 12/21/2
f 8/19/2 6/54/2 11/20/2
f 11/20/2 34/92/2 12/21/2
f 4/22/6 8/94/6 16/23/6
f 9/25/4 46/95/4 47/26/4
f 20/89/5 4/88/5 13/28/5
f 13/28/5 17/87/5 3/96/5
f 3/96/5 45/97/5 46/98/5
f 3/96/5 46/98/5 9/29/5
f 14/99/5 20/89/5 13/28/5
f 41/100/5 42/101/5 14/99/5
f 2/30/5 41/100/5 14/99/5
f 13/28/5 3/96/5 9/29/5
f 2/30/5 14/99/5 13/28/5
f 18/31/3 20/102/3 24/32/3
f 32/103/1 3/104/1 17/105/1
f 17/105/1 22/106/1 12/107/1
f 17/105/1 12/107/1 28/108/1
f 32/103/1 17/105/1 28/108/1
f 27/109/1 11/110/1 6/111/1
f 32/103/1 28/108/1 27/109/1
f 2/112/1 9/113/1 31/114/1
f 31/114/1 32/103/1 27/109/1
f 27/109/1 6/111/1 26/115/1
f 25/34/1 5/116/1 24/117/1
f 31/114/1 27/109/1 26/115/1
f 25/34/1 24/117/1 20/118/1
f 31/114/1 26/115/1 25/34/1
f 30/36/1 2/112/1 31/114/1
f 20/118/1 14/119/1 29/35/1
f 30/36/1 31/114/1 25/34/1
f 25/34/1 20/118/1 29/35/1
f 23/37/6 19/120/6 18/38/6
f 28/40/5 35/121/5 33/41/5
f 33/43/1 35/122/1 36/44/1
f 27/46/4 33/123/4 34/47/4
f 12/49/3 36/124/3 35/50/3
f 5/52/2 38/125/2 40/53/2
f 37/55/1 39/126/1 40/56/1
f 25/46/4 37/127/4 38/58/4
f 26/59/5 39/128/5 37/60/5
f 6/49/3 40/129/3 39/62/3
f 42/63/1 41/130/1 44/64/1
f 14/25/4 42/131/4 43/66/4
f 29/67/2 43/132/2 44/68/2
f 30/70/3 44/133/3 41/71/3
f 46/73/1 45/134/1 48/74/1
f 31/76/2 47/135/2 48/77/2
f 32/70/3 48/136/3 45/79/3
