# Blender 5.1.2
# www.blender.org
mtllib HalfArch.mtl
o HALFARCH
v -0.000000 1.000000 1.000000
v 1.000000 1.000000 1.000000
v 1.000000 0.970677 0.587791
v -0.000000 0.970677 0.587791
v 1.000000 0.957873 0.672208
v -0.000000 0.957873 0.672208
v 1.000000 0.937081 0.750007
v -0.000000 0.937081 0.750007
v 1.000000 0.909099 0.818198
v -0.000000 0.909099 0.818198
v 1.000000 0.875003 0.874161
v -0.000000 0.875003 0.874161
v 1.000000 0.836104 0.915746
v -0.000000 0.836104 0.915746
v 0.500000 0.972838 0.543895
v 0.500000 0.947477 0.711107
v 0.500000 0.964275 0.629999
v 0.500000 0.923090 0.784102
v -0.000000 0.797338 1.000000
v -0.000000 0.794450 0.984351
v 1.000000 0.797338 1.000000
v 1.000000 0.797265 0.984351
v -0.000000 1.000000 0.513339
v 0.002147 0.999401 0.513793
v 1.000000 1.000000 0.513339
v 0.995949 0.987557 0.515218
v 0.152438 0.991574 0.515187
vn -1.0000 -0.0000 -0.0000
vn -0.0000 1.0000 -0.0000
vn 0.0599 -0.7621 0.6447
vn -0.0623 0.0623 -0.9961
vn -0.0000 -0.9887 -0.1500
vn 0.4472 0.8944 -0.0000
vn -0.0000 -0.9661 -0.2582
vn -0.0000 -0.9251 -0.3796
vn -0.0000 -0.8540 -0.5203
vn -0.0000 -0.7303 -0.6831
vn 0.0024 -0.8548 -0.5190
vn 1.0000 -0.0000 -0.0000
vn -0.0000 -0.0000 1.0000
vn -0.0243 -0.9460 -0.3233
vn -0.9994 0.0347 -0.0045
vn -0.0004 -0.1493 -0.9888
vn -0.0041 -0.8593 -0.5115
vn -0.0000 -0.9740 -0.2266
vn -0.0000 -0.8702 -0.4926
vn 0.9372 -0.3244 -0.1278
vn -0.0451 -0.9308 -0.3626
vn -0.2687 -0.9632 -0.0000
vn -0.9924 0.1217 0.0185
vn -0.0009 -0.1917 -0.9815
vn -0.0000 -0.6043 -0.7967
vt 0.996732 0.995925
vt 0.871433 0.871465
vt 0.981150 0.791257
vt 0.513594 0.999834
vt 1.001382 -0.002480
vt 0.513594 -0.002480
vt 0.513594 -0.002480
vt 0.588218 0.999834
vt 0.544221 0.498677
vt 0.588218 -0.002480
vt 0.630525 0.498677
vt 0.672831 0.999834
vt 0.672831 -0.002480
vt 0.711820 0.498677
vt 0.750810 0.999834
vt 0.750810 -0.002480
vt 0.819159 -0.002480
vt 0.784984 0.498677
vt 0.819159 0.999834
vt 0.875252 -0.002480
vt 0.875252 0.999834
vt 0.916932 -0.002480
vt 0.916932 0.999834
vt 0.985696 -0.002480
vt 0.985697 0.999834
vt 0.002294 0.995925
vt 0.183321 0.905412
vt 0.251221 0.933274
vt 0.002119 0.997878
vt 0.997742 0.796103
vt 0.997742 0.997878
vt 0.513594 0.847544
vt 0.512158 0.970378
vt 0.670345 0.953979
vt 0.513594 0.999834
vt 0.486880 0.970378
vt 0.996732 0.794132
vt 0.815710 0.905414
vt 0.912839 0.832732
vt 1.001382 0.999834
vt 0.412745 0.966727
vt 0.486879 0.995925
vt 0.002294 0.794128
vt 0.017876 0.794055
vt 0.086189 0.832728
vt 0.127596 0.871462
vt 0.328688 0.953978
vt 0.002119 0.796103
vt 0.747811 0.933276
vt 0.512158 0.995925
vt 0.586290 0.966728
s 0
usemtl Material
f 1/1/1 12/2/1 20/3/1
f 23/4/2 2/5/2 25/6/2
f 26/7/3 4/8/3 15/9/3
f 3/10/4 17/11/4 6/12/4
f 5/13/5 6/12/5 17/11/5
f 5/13/6 16/14/6 8/15/6
f 7/16/7 8/15/7 16/14/7
f 7/16/8 9/17/8 18/18/8
f 10/19/8 8/15/8 18/18/8
f 10/19/9 11/20/9 12/21/9
f 12/21/10 13/22/10 14/23/10
f 14/23/11 22/24/11 20/25/11
f 2/26/12 9/27/12 7/28/12
f 1/29/13 21/30/13 2/31/13
f 4/8/14 27/32/14 15/9/14
f 1/1/15 24/33/15 6/34/15
f 24/35/16 25/6/16 26/36/16
f 20/3/1 19/37/1 1/1/1
f 1/1/1 10/38/1 12/2/1
f 12/2/1 14/39/1 20/3/1
f 23/4/2 1/40/2 2/5/2
f 15/9/17 27/32/17 26/7/17
f 26/7/18 3/10/18 4/8/18
f 6/12/5 4/8/5 3/10/5
f 3/10/5 5/13/5 17/11/5
f 8/15/7 6/12/7 5/13/7
f 5/13/7 7/16/7 16/14/7
f 18/18/8 8/15/8 7/16/8
f 9/17/8 10/19/8 18/18/8
f 10/19/9 9/17/9 11/20/9
f 12/21/10 11/20/10 13/22/10
f 14/23/19 13/22/19 22/24/19
f 3/41/20 26/36/20 25/42/20
f 2/26/12 21/43/12 22/44/12
f 22/44/12 13/45/12 11/46/12
f 2/26/12 22/44/12 11/46/12
f 3/41/12 25/42/12 2/26/12
f 5/47/12 3/41/12 2/26/12
f 2/26/12 11/46/12 9/27/12
f 7/28/12 5/47/12 2/26/12
f 1/29/13 19/48/13 21/30/13
f 4/8/21 24/35/21 27/32/21
f 8/49/1 10/38/1 1/1/1
f 1/1/22 23/50/22 24/33/22
f 24/33/23 4/51/23 6/34/23
f 6/34/1 8/49/1 1/1/1
f 26/36/24 27/32/24 24/35/24
f 24/35/25 23/50/25 25/6/25
