# Blender 5.1.2
# www.blender.org
mtllib Pillar3.mtl
o PILLAR3
v 0.500000 0.000000 0.000000
v 0.691342 0.000000 0.038060
v 0.853553 0.000000 0.146447
v 0.961940 0.000000 0.308658
v 1.000000 0.000000 0.500000
v 0.961940 0.000000 0.691342
v 0.853553 0.000000 0.853553
v 0.691342 0.000000 0.961940
v 0.500000 0.000000 1.000000
v 0.308658 0.000000 0.961940
v 0.146447 0.000000 0.853553
v 0.038060 0.000000 0.691342
v 0.000000 0.000000 0.500000
v 0.038060 0.000000 0.308658
v 0.222215 0.000000 0.084265
v 0.500000 0.060837 0.079262
v 0.889507 0.062297 0.661339
v 0.264336 0.062230 0.852697
v 0.079262 0.060837 0.500000
v 0.108105 0.062230 0.337672
v 0.338661 0.062297 0.110493
v 0.418254 0.057918 0.089036
v 0.500000 0.237240 0.050000
v 0.500000 0.291243 0.119281
v 0.574275 0.291243 0.126596
v 0.672208 0.237240 0.084254
v 0.645695 0.291243 0.148261
v 0.818198 0.237240 0.181802
v 0.915746 0.237240 0.327792
v 0.941353 0.237240 0.412209
v 0.878788 0.290457 0.424654
v 0.950000 0.237240 0.500000
v 0.941353 0.237240 0.587791
v 0.878788 0.290457 0.575346
v 0.915746 0.237240 0.672208
v 0.818198 0.237240 0.818198
v 0.672208 0.237240 0.915746
v 0.587791 0.237240 0.941353
v 0.575346 0.290457 0.878788
v 0.412209 0.237240 0.941353
v 0.425725 0.291243 0.873404
v 0.327792 0.237240 0.915746
v 0.354305 0.291243 0.851739
v 0.181802 0.237240 0.818198
v 0.230791 0.291243 0.769209
v 0.084254 0.237240 0.672208
v 0.148261 0.291243 0.645695
v 0.126596 0.291243 0.574275
v 0.050000 0.237240 0.500000
v 0.084254 0.237240 0.327792
v 0.143190 0.290457 0.352204
v 0.181802 0.237240 0.181802
v 0.230791 0.291243 0.230791
v 0.327792 0.237240 0.084254
v 0.354305 0.291243 0.148261
v 0.500000 0.549740 0.050000
v 0.500000 0.602957 0.113791
v 0.672208 0.549740 0.084254
v 0.818198 0.549740 0.181802
v 0.915746 0.549740 0.327793
v 0.941353 0.549740 0.412209
v 0.950000 0.549740 0.500000
v 0.941353 0.549740 0.587791
v 0.915746 0.549740 0.672208
v 0.818198 0.549740 0.818198
v 0.769209 0.603743 0.769210
v 0.672208 0.549740 0.915746
v 0.587791 0.549740 0.941353
v 0.575346 0.602957 0.878788
v 0.500000 0.549740 0.950000
v 0.327792 0.549740 0.915746
v 0.354305 0.603743 0.851739
v 0.181802 0.549740 0.818198
v 0.226909 0.602957 0.773091
v 0.084254 0.549740 0.672208
v 0.143190 0.602957 0.647796
v 0.050000 0.549740 0.500000
v 0.084254 0.549740 0.327793
v 0.143190 0.602957 0.352204
v 0.181802 0.549740 0.181802
v 0.327792 0.549740 0.084254
v 0.500000 0.400712 0.050000
v 0.500000 0.338337 0.124770
v 0.672208 0.400712 0.084254
v 0.643594 0.338337 0.153333
v 0.818198 0.400712 0.181802
v 0.765328 0.338337 0.234672
v 0.915746 0.400712 0.327793
v 0.846667 0.338337 0.356406
v 0.950000 0.400712 0.500000
v 0.875230 0.338337 0.500000
v 0.915746 0.400712 0.672208
v 0.846667 0.338337 0.643595
v 0.818198 0.400712 0.818198
v 0.765328 0.338337 0.765328
v 0.672208 0.400712 0.915746
v 0.643594 0.338337 0.846668
v 0.500000 0.400712 0.950000
v 0.500000 0.338337 0.875230
v 0.327792 0.400712 0.915746
v 0.356406 0.338337 0.846668
v 0.181802 0.400712 0.818198
v 0.234672 0.338337 0.765328
v 0.084254 0.400712 0.672208
v 0.153333 0.338337 0.643595
v 0.050000 0.400712 0.500000
v 0.124770 0.338337 0.500000
v 0.058647 0.400712 0.412209
v 0.131980 0.338337 0.426796
v 0.084254 0.400712 0.327793
v 0.188008 0.338337 0.291533
v 0.181802 0.400712 0.181802
v 0.234672 0.338337 0.234672
v 0.327792 0.400712 0.084254
v 0.356406 0.338337 0.153333
v 0.500000 0.862240 0.050000
v 0.672208 0.862240 0.084254
v 0.818198 0.862240 0.181802
v 0.941353 0.862240 0.412210
v 0.941353 0.862240 0.587791
v 0.915746 0.862240 0.672208
v 0.818198 0.862240 0.818198
v 0.672208 0.862240 0.915746
v 0.500000 0.862240 0.950000
v 0.412209 0.862240 0.941354
v 0.327792 0.862240 0.915746
v 0.181802 0.862240 0.818198
v 0.084254 0.862240 0.672208
v 0.050000 0.862240 0.500000
v 0.058647 0.862240 0.412210
v 0.125839 0.862240 0.249994
v 0.181802 0.862240 0.181802
v 0.327792 0.862240 0.084254
v 0.500000 0.713212 0.050000
v 0.500000 0.650837 0.124770
v 0.573204 0.650837 0.131980
v 0.672208 0.713212 0.084254
v 0.643594 0.650837 0.153333
v 0.818198 0.713212 0.181802
v 0.765328 0.650837 0.234673
v 0.915746 0.713212 0.327793
v 0.846667 0.650837 0.356406
v 0.941353 0.713212 0.412210
v 0.868020 0.650837 0.426796
v 0.950000 0.713212 0.500000
v 0.875230 0.650837 0.500000
v 0.915746 0.713212 0.672208
v 0.846667 0.650837 0.643595
v 0.818198 0.713212 0.818198
v 0.765328 0.650837 0.765328
v 0.672208 0.713212 0.915746
v 0.643594 0.650837 0.846668
v 0.500000 0.713212 0.950000
v 0.500000 0.650837 0.875230
v 0.412209 0.713212 0.941354
v 0.327792 0.713212 0.915746
v 0.356406 0.650837 0.846668
v 0.181802 0.713212 0.818198
v 0.234672 0.650837 0.765328
v 0.188242 0.650491 0.708310
v 0.084254 0.713212 0.672208
v 0.058647 0.713212 0.587791
v 0.050000 0.713212 0.500000
v 0.125839 0.713212 0.249994
v 0.327792 0.713212 0.084254
v 0.500000 1.000000 0.000000
v 0.691342 1.000000 0.038060
v 0.853553 1.000000 0.146447
v 0.961940 1.000000 0.308658
v 1.000000 1.000000 0.500000
v 0.961940 1.000000 0.691342
v 0.853553 1.000000 0.853553
v 0.691342 1.000000 0.961940
v 0.500000 1.000000 1.000000
v 0.308658 1.000000 0.961940
v 0.146447 1.000000 0.853553
v 0.038060 1.000000 0.691342
v 0.000000 1.000000 0.500000
v 0.038060 1.000000 0.308658
v 0.146447 1.000000 0.146447
v 0.308658 1.000000 0.038060
v 0.500000 0.957649 0.000000
v 0.500000 0.943401 0.094880
v 0.691342 0.957649 0.038060
v 0.725073 0.943401 0.163155
v 0.853553 0.957649 0.146447
v 0.915735 0.957649 0.222215
v 0.836845 0.943401 0.274927
v 0.961940 0.957649 0.308658
v 1.000000 0.957649 0.500000
v 0.905120 0.943401 0.500000
v 0.961940 0.957649 0.691342
v 0.874283 0.943401 0.655033
v 0.853553 0.957649 0.853553
v 0.725073 0.943401 0.836845
v 0.691342 0.957649 0.961940
v 0.655033 0.943401 0.874283
v 0.500000 0.957649 1.000000
v 0.500000 0.943401 0.905120
v 0.308658 0.957649 0.961940
v 0.344967 0.943401 0.874282
v 0.146447 0.957649 0.853553
v 0.213537 0.943401 0.786463
v 0.038060 0.957649 0.691342
v 0.125717 0.943401 0.655033
v 0.000000 0.957649 0.500000
v 0.094880 0.943401 0.500000
v 0.038060 0.957649 0.308658
v 0.125717 0.943401 0.344967
v 0.146447 0.957649 0.146447
v 0.213537 0.943401 0.213537
v 0.222215 0.957649 0.084265
v 0.274927 0.943401 0.163155
v 0.308658 0.957649 0.038060
v 0.344967 0.943401 0.125717
v 0.132698 0.650144 0.573355
v 0.125488 0.650144 0.500151
v 0.132698 0.650144 0.426947
v 0.188725 0.650144 0.291684
v 0.235390 0.650144 0.234823
v 0.356764 0.650491 0.153408
v 0.500000 0.086939 0.000000
v 0.691342 0.086939 0.038060
v 0.853553 0.086939 0.146447
v 0.961940 0.086939 0.308658
v 1.000000 0.086939 0.500000
v 0.961940 0.086939 0.691342
v 0.853553 0.086939 0.853553
v 0.691342 0.086939 0.961940
v 0.500000 0.086939 1.000000
v 0.308658 0.086939 0.961940
v 0.146447 0.086939 0.853553
v 0.038060 0.086939 0.691342
v 0.000000 0.086939 0.500000
v 0.038060 0.086939 0.308658
v 0.222215 0.086939 0.084265
v 0.732792 0.062363 0.151602
v 0.887119 0.062363 0.339650
v 0.919015 0.062363 0.500000
v 0.797507 0.060837 0.797507
v 0.500000 0.062363 0.919015
v 0.151602 0.062363 0.267208
v 0.769209 0.291243 0.230791
v 0.846667 0.292028 0.356406
v 0.878890 0.291505 0.500000
v 0.846667 0.292028 0.643595
v 0.767915 0.291505 0.767916
v 0.643594 0.292028 0.846668
v 0.500000 0.292028 0.875230
v 0.119281 0.291243 0.500000
v 0.188008 0.292028 0.291533
v 0.573922 0.604519 0.132131
v 0.645707 0.603738 0.148231
v 0.768285 0.603983 0.232294
v 0.873404 0.603743 0.425726
v 0.873404 0.603743 0.574275
v 0.846667 0.604528 0.643595
v 0.644995 0.604005 0.850049
v 0.500000 0.604528 0.875230
v 0.185960 0.604176 0.709835
v 0.119639 0.603793 0.500076
v 0.132698 0.604633 0.426947
v 0.231150 0.603784 0.230866
v 0.355305 0.604044 0.150148
v 0.500000 0.899680 0.094880
v 0.655033 0.899680 0.125718
v 0.725073 0.899680 0.163155
v 0.786464 0.899680 0.213537
v 0.836845 0.899680 0.274927
v 0.897336 0.899680 0.420965
v 0.905120 0.899680 0.500000
v 0.897336 0.899680 0.579035
v 0.874283 0.899680 0.655033
v 0.786463 0.899680 0.786463
v 0.725073 0.899680 0.836845
v 0.655033 0.899680 0.874283
v 0.500000 0.899680 0.905120
v 0.344967 0.899680 0.874282
v 0.213537 0.899680 0.786463
v 0.125718 0.899680 0.655033
v 0.094880 0.899680 0.500000
v 0.102664 0.899680 0.420965
v 0.125717 0.899680 0.344967
v 0.213536 0.899680 0.213537
v 0.344967 0.899680 0.125717
v 0.662328 0.062230 0.108105
v 0.852697 0.062230 0.264336
v 0.916034 0.062230 0.417246
v 0.661339 0.062297 0.889507
v 0.339650 0.062363 0.887119
v 0.417246 0.062230 0.916034
v 0.203712 0.062363 0.796288
v 0.110493 0.062297 0.661339
v 0.200056 0.062230 0.200056
v 0.500000 0.094448 0.050000
v 0.672208 0.094448 0.084254
v 0.818198 0.094448 0.181802
v 0.915746 0.094448 0.327792
v 0.950000 0.094448 0.500000
v 0.915746 0.094448 0.672208
v 0.818198 0.094448 0.818198
v 0.672208 0.094448 0.915746
v 0.412209 0.094448 0.941353
v 0.181802 0.094448 0.818198
v 0.084254 0.094448 0.672208
v 0.050000 0.094448 0.500000
v 0.084254 0.094448 0.327792
v 0.181802 0.094448 0.181802
v 0.249993 0.094448 0.125839
v 0.327792 0.094448 0.084254
vn 0.0784 0.9968 0.0140
vn -0.9808 -0.0000 -0.1951
vn -0.0000 -1.0000 -0.0000
vn 0.6355 -0.7617 0.1264
vn -0.1951 -0.0000 0.9808
vn 0.5556 -0.0000 0.8315
vn 0.8195 0.1693 -0.5475
vn 0.0876 -0.9826 0.1640
vn 0.1951 -0.0000 0.9808
vn 0.6730 -0.7274 -0.1339
vn -0.1951 -0.0000 -0.9808
vn 0.3600 -0.7617 -0.5387
vn 0.1951 -0.0000 -0.9808
vn -0.0013 1.0000 -0.0092
vn 0.0056 -0.9999 -0.0084
vn 0.0020 -0.9999 -0.0099
vn -0.0092 1.0000 -0.0013
vn 0.1264 0.7617 -0.6355
vn -0.9569 -0.0000 -0.2903
vn 0.0722 -0.6759 -0.7335
vn -0.3600 0.7617 0.5387
vn -0.9173 0.3878 0.0903
vn 0.1484 0.9885 -0.0295
vn -0.9808 -0.0000 0.1951
vn -0.8315 -0.0000 -0.5556
vn -0.8315 -0.0000 0.5556
vn 0.9808 -0.0000 -0.1951
vn -0.6355 0.7617 -0.1264
vn 0.8315 -0.0000 -0.5556
vn 0.3600 -0.7617 0.5387
vn -0.0295 -0.9885 0.1484
vn 0.5762 0.8173 -0.0000
vn -0.0049 -1.0000 0.0040
vn -0.1255 -0.7605 -0.6371
vn -0.6505 -0.6752 -0.3477
vn 0.3098 0.7538 0.5795
vn -0.3457 0.7829 0.5173
vn -0.0841 0.9885 0.1258
vn -0.0152 -0.9998 -0.0113
vn -0.5438 0.7581 0.3600
vn -0.0619 0.7753 0.6285
vn -0.2903 -0.0000 0.9569
vn 0.3801 0.5913 -0.7112
vn -0.0921 0.8520 -0.5154
vn -0.3600 -0.7617 -0.5387
vn 0.5387 -0.7617 -0.3600
vn 0.5795 0.7538 -0.3098
vn -0.1264 -0.7617 -0.6355
vn -0.5387 0.7617 0.3600
vn 0.9808 -0.0000 0.1951
vn 0.5421 0.1133 0.8326
vn 0.9791 -0.0579 0.1948
vn 0.4714 -0.0000 0.8819
vn 0.8315 -0.0000 0.5556
vn -0.0412 0.9990 0.0171
vn -0.6298 0.1197 -0.7675
vn -0.3600 -0.7617 0.5387
vn 0.5986 0.8010 -0.0000
vn 0.3355 0.7025 0.6277
vn 0.4789 0.8397 0.2560
vn 0.0033 -1.0000 0.0044
vn 0.4824 0.8323 0.2732
vn -0.1264 0.7617 -0.6355
vn -0.0783 -0.2772 -0.9576
vn -0.6100 0.7858 0.1017
vn 0.5556 -0.0000 -0.8315
vn -0.0708 0.6918 0.7186
vn -0.5173 0.7829 0.3457
vn -0.6500 -0.6759 -0.3474
vn 0.1264 -0.7617 -0.6355
vn -0.0723 -0.6752 -0.7341
vn -0.3457 0.7829 -0.5173
vn -0.5032 0.7858 -0.3594
vn -0.7186 0.6918 0.0708
vn 0.9730 0.0760 0.2181
vn 0.6355 -0.7617 -0.1264
vn 0.8454 0.1127 -0.5220
vn 0.1264 -0.7617 0.6355
vn 0.0371 0.9990 0.0248
vn 0.5338 0.0760 0.8422
vn -0.5387 -0.7617 0.3600
vn 0.5387 -0.7617 0.3600
vn -0.1264 0.7617 0.6355
vn -0.6307 -0.2616 -0.7306
vn -0.5053 0.7845 -0.3595
vn 0.1264 0.7617 0.6355
vn -0.2903 -0.0000 -0.9569
vn 0.2096 0.6918 -0.6910
vn 0.7112 0.5913 0.3801
vn -0.1214 0.7829 -0.6102
vn -0.6393 -0.7664 -0.0630
vn -0.5556 -0.0000 0.8315
vn -0.5556 -0.0000 -0.8315
vn -0.9886 0.1147 -0.0974
vn -0.7112 0.5913 -0.3801
vn 0.8025 0.5913 -0.0790
vn 0.5570 0.7753 -0.2977
vn 0.5116 0.5913 0.6234
vn 0.3458 0.7898 -0.5066
vn 0.0113 -0.9998 -0.0152
vn -0.3600 0.7617 -0.5387
vn 0.1387 0.7844 -0.6046
vn 0.3457 0.7829 -0.5173
vn -0.1264 -0.7617 0.6355
vn -0.3346 0.7910 -0.5122
vn -0.4678 -0.6755 -0.5700
vn -0.6502 -0.6756 0.3475
vn -0.6400 -0.7658 0.0630
vn -0.8746 -0.3240 0.3608
vn -0.6344 -0.0000 -0.7730
vn 0.1726 0.4664 -0.8676
vn -0.6344 0.0566 0.7709
vn -0.9506 0.1147 0.2884
vn -0.0076 0.9999 0.0093
vn -0.7730 -0.0000 -0.6344
vn -0.1938 0.1136 -0.9744
vn -0.0000 1.0000 -0.0000
vn 0.0637 0.7601 -0.6467
vn 0.7623 -0.1661 -0.6256
vn 0.8791 0.0793 -0.4699
vn 0.3764 0.8465 0.3764
vn 0.1483 -0.9879 -0.0450
vn -0.6005 -0.7907 -0.1194
vn 0.1709 0.0760 0.9824
vn 0.0903 0.3878 -0.9173
vn -0.0267 0.4635 0.8857
vn -0.1588 0.1127 0.9809
vn 0.4404 -0.2706 -0.8560
vn -0.8712 -0.2247 -0.4365
vn -0.5413 0.1205 -0.8322
vn 0.0171 0.9990 -0.0412
vn -0.9771 0.1236 -0.1731
vn -0.8261 0.1136 0.5520
vn -0.9380 0.3340 -0.0924
vn -0.4714 -0.0000 0.8819
vn 0.8172 0.4664 -0.3385
vn 0.9020 0.3340 0.2736
vn 0.9668 -0.2259 0.1195
vn 0.5980 0.3340 -0.7286
vn 0.7355 0.4664 0.4914
vn -0.0099 -0.9999 0.0020
vn -0.0477 0.9988 0.0133
vn -0.9293 -0.3579 -0.0915
vn -0.8025 0.5913 0.0790
vn -0.5520 0.1136 0.8261
vn 0.5520 0.1136 -0.8261
vn 0.0980 -0.0000 0.9952
vn 0.0019 -1.0000 0.0097
vn -0.0540 0.9984 -0.0140
vn 0.0318 0.9994 -0.0139
vn 0.0759 -0.9963 0.0406
vn -0.0208 -0.9997 -0.0130
vn -0.0069 0.9983 -0.0573
vn 0.0074 1.0000 -0.0056
vn -0.0301 0.9988 0.0387
vn 0.0011 -0.9996 0.0269
vn -0.6600 0.7432 -0.1093
vn 0.0011 -1.0000 -0.0002
vn 0.1642 -0.9814 0.0999
vn 0.8819 -0.0000 -0.4714
vn 0.9569 -0.0000 -0.2903
vn 0.1258 -0.9885 0.0841
vn 0.0841 -0.9885 0.1258
vn 0.0994 -0.9917 0.0815
vn 0.6393 -0.7664 -0.0630
vn 0.6148 -0.7664 -0.1865
vn 0.1865 -0.7664 -0.6148
vn -0.9506 0.1152 0.2884
vn -0.9744 0.1136 0.1938
vn 0.1484 0.9885 0.0295
vn 0.0841 0.9885 -0.1258
vn 0.3764 0.8465 -0.3764
vn 0.5323 0.8465 -0.0000
vn 0.1258 0.9885 -0.0841
vn -0.6115 0.7845 -0.1031
vn -0.1258 -0.9885 0.0841
vn -0.3402 -0.7907 0.5091
vn 0.0295 -0.9885 0.1484
vn 0.6136 0.7873 0.0604
vn 0.6137 0.7873 -0.0604
vn -0.0947 0.9888 -0.1153
vn -0.1484 0.9885 0.0295
vn -0.2849 0.9395 -0.1904
vn -0.1484 0.9885 -0.0295
vn 0.3065 0.7841 0.5397
vn 0.0152 0.9879 0.1543
vn -0.1258 0.9885 0.0841
vn -0.0000 0.9395 0.3426
vn -0.0525 0.9938 0.0983
vn -0.5368 0.7620 0.3622
vn -0.0775 0.7518 0.6549
vn 0.4075 0.7664 -0.4966
vn 0.3600 0.7617 -0.5387
vn -0.3293 0.7845 0.5255
vn 0.5493 0.7771 -0.3073
vn 0.5539 0.0764 0.8290
vn 1.0000 -0.0000 -0.0000
vn 0.9569 -0.0000 0.2903
vn 0.9886 0.1147 -0.0974
vn -0.4714 -0.0000 -0.8819
vn 0.6393 0.7664 0.0630
vn 0.6393 0.7664 -0.0630
vn 0.9953 -0.0968 -0.0000
vn 0.3410 0.7823 0.5214
vn 0.2368 0.7628 0.6017
vn 0.5173 0.7829 0.3457
vn 0.5901 0.7873 0.1790
vn 0.5106 0.7892 0.3412
vn 0.6148 0.7664 0.1865
vn -0.1957 0.0748 -0.9778
vn 0.0980 -0.0017 -0.9952
vn -0.6355 0.7617 0.1264
vn -0.0194 0.7597 0.6500
vn -0.1790 0.7873 0.5901
vn -0.4966 -0.7664 -0.4075
vn -0.5986 -0.7617 -0.2479
vn -0.1431 0.7923 -0.5932
vn -0.6099 0.7859 -0.1016
vn -0.0703 0.9888 -0.1316
vn 0.0295 0.9885 -0.1484
vn -0.0668 0.9395 -0.3361
vn -0.5387 0.7617 -0.3600
vn -0.6102 0.7829 0.1214
vn -0.5901 0.7873 0.1790
vn -0.0163 0.9996 -0.0244
vn -0.5520 0.1136 -0.8261
vn 0.1214 0.7829 -0.6102
vn 0.0604 0.7873 -0.6136
vn 0.5387 0.7617 0.3600
vn -0.6355 -0.7617 0.1264
vn -0.6148 0.7664 -0.1865
vn 0.6479 0.7617 -0.0000
vn 0.5486 0.7815 -0.2972
vn 0.3028 0.7664 0.5666
vn 0.3600 0.7617 0.5387
vn 0.3457 0.7828 -0.5174
vn -0.3450 0.7838 -0.5163
vn -0.3598 -0.7612 -0.5396
vn -0.4973 -0.7656 -0.4081
vn -0.4958 -0.7664 0.4084
vn -0.5995 -0.7608 0.2487
vn -0.9875 0.1244 0.0973
vn -0.9520 0.0568 0.3009
vn -0.0980 -0.0000 0.9952
vn 0.2903 -0.0000 -0.9569
vn 0.4714 -0.0000 -0.8819
vn -0.6404 0.1104 0.7601
vn -0.0089 -0.9999 0.0133
vn -0.9952 -0.0000 0.0980
vn 0.1153 -0.9888 -0.0947
vn 0.0972 -0.9905 -0.0972
vn -0.0703 -0.9888 -0.1316
vn 0.0750 -0.9661 -0.2472
vn -0.0420 -0.9765 -0.2112
vn 0.5986 0.7617 -0.2479
vn 0.8733 0.1106 -0.4745
vn 0.1258 0.9885 0.0841
vn 0.0841 0.9885 0.1258
vn 0.1484 -0.9885 0.0295
vn -0.0947 -0.9888 -0.1153
vn -0.1484 -0.9885 0.0295
vn -0.1258 -0.9885 -0.0841
vn 0.9730 0.0760 -0.2181
vn 0.8422 0.0760 0.5338
vn 0.1938 0.1136 -0.9744
vn 0.2884 0.1152 -0.9506
vn -0.2884 0.1152 0.9506
vn 0.5539 0.0770 -0.8290
vn 0.0171 0.9995 -0.0279
vn 0.2903 0.0014 -0.9569
vn -0.9239 -0.0000 -0.3827
vn -0.7671 0.1239 -0.6295
vn -0.5556 0.0756 -0.8280
vn 0.8454 0.1127 0.5220
vn -0.9952 -0.0000 -0.0980
vn 0.9952 -0.0000 -0.0980
vn 0.9952 -0.0000 0.0980
vn -0.9441 0.1100 -0.3108
vn 0.0294 0.9996 -0.0000
vn 0.9886 0.1152 -0.0974
vn 0.7071 -0.0000 -0.7071
vn 0.7730 -0.0000 -0.6344
vn 0.7730 -0.0000 0.6344
vn 0.6344 -0.0000 0.7730
vn -0.6291 -0.7535 -0.1908
vn -0.5990 -0.7613 -0.2481
vn -0.6393 0.7664 -0.0630
vn -0.0261 0.5840 0.8113
vn 0.0188 0.9989 0.0422
vn -0.6600 0.5841 -0.4724
vn 0.0252 -0.9996 -0.0093
vn 0.0175 0.9998 0.0117
vn 0.1833 0.5866 -0.7889
vn -0.0007 0.9994 0.0347
vn -0.0499 0.9983 -0.0294
vn 0.0005 1.0000 -0.0002
vn -0.0110 0.9999 0.0133
vn 0.0103 -0.9999 -0.0122
vn 0.0014 1.0000 -0.0003
vn 0.0003 -1.0000 -0.0002
vt 0.000000 0.000000
vt 1.000000 1.000000
vt 0.000000 1.000000
vt 1.000000 0.000000
vt 0.933013 0.250000
vt 0.206107 0.095492
vt 0.128428 0.834566
vt 0.975528 0.654508
vt 0.206107 0.095492
vt 0.024472 0.654509
vt 0.933013 0.750000
vt 0.500000 0.000000
vt 0.066987 0.250000
vt 0.066987 0.750000
vt 0.500000 1.000000
vt 0.793893 0.095491
vt 0.206108 0.904509
vt 0.821394 0.883022
vt 0.933013 0.250000
vt 0.007596 0.586824
vt 0.671010 0.030154
vt 0.178606 0.883022
vt 0.890916 0.811745
vt 0.283058 0.049516
vt 0.109084 0.811745
vt 0.691342 0.038060
vt 0.038060 0.308658
vt 0.308659 0.961940
vt 0.994911 0.428843
vt 0.122125 0.172570
vt 0.229680 0.920627
vt 0.793893 0.904508
vt 0.853553 0.853553
vt 1.000000 0.500000
vt 0.853553 0.146447
vt 0.296632 0.956773
vt 0.703368 0.956773
vt 0.871572 0.834565
vt 0.975528 0.654508
vt 0.997261 0.447736
vt 0.793893 0.095491
vt 0.603956 0.010926
vt 0.396044 0.010926
vt 0.066987 0.250000
vt 0.002739 0.447736
vt 0.024472 0.654509
vt 0.975528 0.345491
vt 0.024472 0.345491
vt 0.992404 0.586824
vt 0.328990 0.030154
vt 0.987464 0.388739
vt 0.716942 0.049516
vt 0.012536 0.388740
vt 0.691342 0.961940
vt 0.961940 0.691342
vt 0.961940 0.308658
vt 0.500000 0.000000
vt 0.308658 0.038060
vt 0.146447 0.146446
vt 0.000000 0.500000
vt 0.038060 0.691342
vt 0.146447 0.853554
vt 0.770320 0.920627
vt 0.954816 0.707707
vt 0.877875 0.172570
vt 0.640866 0.020253
vt 0.359134 0.020254
vt 0.005089 0.428843
vt 0.045184 0.707708
vt 0.146447 0.146447
vt 0.146447 0.853553
s 0
usemtl Material.002
f 246/1/1 34/2/1 245/3/1
f 49/4/2 307/3/2 306/1/2
f 14/5/3 3/6/3 7/7/3
f 92/4/4 91/3/4 90/1/4
f 71/4/5 98/3/5 70/1/5
f 123/4/6 149/3/6 122/1/6
f 119/8/7 141/9/7 139/10/7
f 194/11/8 197/12/8 195/13/8
f 229/4/9 9/3/9 8/1/9
f 145/11/10 144/12/10 141/14/10
f 133/4/11 134/3/11 165/1/11
f 139/4/12 138/3/12 137/1/12
f 23/4/13 296/3/13 295/1/13
f 291/1/14 241/4/14 289/2/14
f 290/1/15 18/4/15 292/2/15
f 241/1/16 291/4/16 290/2/16
f 288/1/17 17/4/17 239/2/17
f 265/1/18 117/2/18 116/3/18
f 131/8/19 163/9/19 129/10/19
f 137/8/20 136/9/20 135/10/20
f 279/1/21 126/2/21 278/3/21
f 105/8/22 250/9/22 48/10/22
f 299/15/23 225/16/23 298/17/23
f 14/4/2 234/3/2 235/1/2
f 231/4/5 9/3/5 230/1/5
f 49/4/24 305/3/24 46/1/24
f 209/4/25 284/3/25 283/1/25
f 46/4/26 304/3/26 44/1/26
f 62/8/27 88/9/27 60/10/27
f 49/4/28 51/3/28 50/1/28
f 81/4/11 82/3/11 114/1/11
f 224/4/29 4/3/29 3/1/29
f 149/1/30 152/2/30 150/3/30
f 201/16/31 199/12/31 198/10/31
f 62/8/32 255/9/32 256/10/32
f 237/1/33 287/4/33 238/2/33
f 165/1/34 135/2/34 221/3/34
f 236/18/35 234/19/35 307/20/35
f 36/8/36 39/9/36 38/10/36
f 42/4/37 45/3/37 44/1/37
f 233/4/26 11/3/26 232/1/26
f 304/21/38 232/20/38 231/22/38
f 242/1/39 19/4/39 20/2/39
f 73/8/40 260/9/40 76/10/40
f 68/8/41 72/9/41 71/10/41
f 126/15/42 156/12/42 125/14/42
f 267/15/43 118/16/43 266/10/43
f 22/1/44 21/4/44 16/2/44
f 147/4/4 146/3/4 145/1/4
f 114/4/45 113/3/45 112/1/45
f 71/4/21 74/3/21 73/1/21
f 139/1/46 142/2/46 140/3/46
f 28/8/47 31/9/47 30/10/47
f 82/4/48 115/3/48 114/1/48
f 280/1/49 127/2/49 279/3/49
f 75/4/26 102/3/26 73/1/26
f 222/4/13 2/3/13 1/1/13
f 35/8/50 299/9/50 32/10/50
f 77/4/24 104/3/24 75/1/24
f 205/4/26 279/3/26 203/1/26
f 150/4/51 258/3/51 66/1/51
f 120/11/52 147/12/52 145/13/52
f 50/4/25 308/3/25 307/1/25
f 197/15/53 276/12/53 195/14/53
f 228/4/54 6/3/54 227/1/54
f 287/1/55 288/4/55 238/2/55
f 54/8/56 309/9/56 308/10/56
f 210/4/25 179/3/25 180/1/25
f 158/4/57 157/3/57 156/1/57
f 32/11/58 31/12/58 34/14/58
f 65/11/59 258/12/59 68/14/59
f 64/8/60 256/9/60 66/10/60
f 21/1/61 242/4/61 294/2/61
f 35/8/62 34/9/62 247/10/62
f 285/1/63 116/2/63 133/3/63
f 135/8/64 252/9/64 264/10/64
f 77/1/65 76/2/65 261/3/65
f 3/4/66 223/3/66 224/1/66
f 38/11/67 41/12/67 42/14/67
f 96/4/30 95/3/30 94/1/30
f 44/4/68 47/3/68 46/1/68
f 112/11/69 111/12/69 108/14/69
f 81/4/63 57/3/63 56/1/63
f 77/4/28 79/3/28 78/1/28
f 84/4/70 83/3/70 82/1/70
f 236/23/71 295/24/71 223/25/71
f 52/4/72 55/3/72 54/1/72
f 80/1/73 79/2/73 263/3/73
f 46/8/74 48/9/74 250/10/74
f 88/4/46 87/3/46 86/1/46
f 91/4/75 246/3/75 245/1/75
f 90/4/76 89/3/76 88/1/76
f 87/1/77 244/2/77 243/3/77
f 98/4/78 97/3/78 96/1/78
f 20/1/79 294/4/79 242/2/79
f 95/4/80 248/3/80 247/1/80
f 104/4/81 103/3/81 102/1/81
f 94/4/82 93/3/82 92/1/82
f 102/4/57 101/3/57 100/1/57
f 26/4/66 297/3/66 296/1/66
f 124/8/83 278/9/83 126/10/83
f 251/11/84 113/12/84 55/14/84
f 52/1/85 51/2/85 53/3/85
f 36/4/54 300/3/54 35/1/54
f 277/4/86 123/3/86 276/1/86
f 1/4/87 236/3/87 222/1/87
f 23/8/88 25/9/88 27/10/88
f 64/8/50 90/9/50 62/10/50
f 122/11/89 120/12/89 273/14/89
f 54/4/90 24/3/90 23/1/90
f 106/11/91 109/12/91 107/13/91
f 60/4/29 86/3/29 59/1/29
f 29/4/29 297/3/29 28/1/29
f 59/4/66 84/3/66 58/1/66
f 58/4/13 82/3/13 56/1/13
f 54/4/11 295/3/11 310/1/11
f 70/8/9 96/9/9 67/10/9
f 67/4/6 94/3/6 65/1/6
f 37/4/6 301/3/6 36/1/6
f 11/4/92 231/3/92 232/1/92
f 81/4/93 112/3/93 80/1/93
f 78/8/94 108/9/94 106/10/94
f 73/4/92 100/3/92 71/1/92
f 65/4/54 92/3/54 64/1/54
f 32/8/27 298/9/27 29/10/27
f 226/4/50 6/3/50 5/1/50
f 283/11/95 132/12/95 130/14/95
f 120/8/96 270/9/96 271/10/96
f 59/8/97 255/9/97 61/10/97
f 275/15/98 123/16/98 274/10/98
f 59/1/99 253/2/99 254/3/99
f 16/1/100 286/4/100 237/2/100
f 133/4/101 284/3/101 285/1/101
f 149/4/82 148/3/82 147/1/82
f 234/4/24 12/3/24 233/1/24
f 58/1/102 57/2/102 253/3/102
f 151/1/78 154/2/78 152/3/78
f 28/1/103 27/2/103 243/3/103
f 117/4/13 134/3/13 116/1/13
f 156/8/104 154/9/104 153/10/104
f 81/1/105 263/2/105 264/3/105
f 220/8/106 164/9/106 165/10/106
f 160/15/107 158/19/107 162/13/107
f 217/4/108 162/3/108 163/1/108
f 216/15/109 261/16/109 160/10/109
f 86/4/12 85/3/12 84/1/12
f 118/4/66 137/3/66 117/1/66
f 133/8/110 164/9/110 131/10/110
f 124/15/9 153/12/9 123/14/9
f 215/4/11 265/3/11 285/1/11
f 122/4/54 147/3/54 121/1/54
f 185/8/111 266/9/111 265/10/111
f 128/4/26 158/3/26 127/1/26
f 157/8/112 160/9/112 260/10/112
f 184/4/13 166/3/13 167/1/13
f 129/8/113 162/9/113 161/10/113
f 286/1/114 287/4/114 237/2/114
f 236/4/115 14/3/115 235/1/115
f 115/4/116 24/3/116 55/1/116
f 178/26/117 174/27/117 170/28/117
f 186/29/118 183/30/118 212/31/118
f 269/15/119 119/16/119 268/10/119
f 278/1/92 203/2/92 279/3/92
f 211/8/93 215/9/93 285/10/93
f 144/8/120 254/9/120 140/10/120
f 301/11/121 229/12/121 227/14/121
f 190/23/122 191/24/122 187/25/122
f 210/32/123 209/12/123 204/10/123
f 91/4/27 244/3/27 89/1/27
f 181/4/11 182/3/11 214/1/11
f 192/4/50 170/3/50 171/1/50
f 186/4/66 167/3/66 168/1/66
f 190/4/27 169/3/27 170/1/27
f 196/4/6 172/3/6 173/1/6
f 200/4/5 174/3/5 175/1/5
f 198/4/9 173/3/9 174/1/9
f 202/4/92 175/3/92 176/1/92
f 194/4/54 171/3/54 172/1/54
f 206/4/24 177/3/24 178/1/24
f 204/4/26 176/3/26 177/1/26
f 208/4/2 178/3/2 179/1/2
f 152/1/124 259/2/124 258/3/124
f 95/4/54 246/3/54 93/1/54
f 214/8/93 210/9/93 180/10/93
f 85/8/125 25/9/125 24/10/125
f 101/8/126 41/9/126 249/10/126
f 259/1/127 157/2/127 72/3/127
f 254/11/128 252/12/128 138/14/128
f 219/8/129 263/9/129 262/10/129
f 220/1/130 264/2/130 263/3/130
f 199/4/5 278/3/5 277/1/5
f 150/4/54 257/3/54 148/1/54
f 291/1/131 18/4/131 290/2/131
f 217/1/132 262/2/132 261/3/132
f 45/1/133 105/2/133 47/3/133
f 209/8/134 282/9/134 281/10/134
f 44/8/135 303/9/135 40/10/135
f 99/4/9 248/3/9 97/1/9
f 207/4/24 280/3/24 205/1/24
f 191/8/136 270/9/136 269/10/136
f 191/8/137 273/9/137 272/10/137
f 107/8/19 111/9/19 251/10/19
f 146/15/138 257/19/138 255/13/138
f 189/8/29 186/9/29 168/10/29
f 188/8/139 268/9/139 267/10/139
f 195/8/140 274/9/140 273/10/140
f 238/1/141 288/4/141 239/2/141
f 261/1/142 76/4/142 260/2/142
f 100/4/104 99/3/104 98/1/104
f 164/8/143 218/9/143 217/10/143
f 281/11/144 130/12/144 128/14/144
f 43/1/145 103/2/145 45/3/145
f 226/4/27 4/3/27 225/1/27
f 228/4/6 8/3/6 7/1/6
f 80/4/25 110/3/25 78/1/25
f 85/4/146 243/3/146 27/1/146
f 40/8/147 302/9/147 37/10/147
f 248/15/148 249/8/148 247/10/148
f 251/4/149 51/3/149 250/1/149
f 243/1/150 245/2/150 31/3/150
f 257/1/151 66/4/151 256/2/151
f 242/15/152 294/16/152 19/10/152
f 252/4/153 57/3/153 264/1/153
f 18/1/154 293/4/154 292/2/154
f 74/1/155 72/4/155 260/2/155
f 72/1/156 258/2/156 259/3/156
f 262/1/157 79/2/157 261/3/157
f 238/33/158 239/34/158 17/35/158
f 246/1/159 247/4/159 34/2/159
f 49/4/2 50/2/2 307/3/2
f 8/36/3 9/15/3 10/37/3
f 10/37/3 11/38/3 12/39/3
f 12/39/3 13/40/3 14/5/3
f 14/5/3 15/41/3 1/42/3
f 1/42/3 2/43/3 3/6/3
f 3/6/3 4/44/3 5/45/3
f 5/45/3 6/46/3 7/7/3
f 7/7/3 8/36/3 10/37/3
f 10/37/3 12/39/3 14/5/3
f 14/5/3 1/42/3 3/6/3
f 3/6/3 5/45/3 7/7/3
f 7/7/3 10/37/3 14/5/3
f 92/4/4 93/2/4 91/3/4
f 71/4/5 100/2/5 98/3/5
f 123/4/6 151/2/6 149/3/6
f 139/10/160 118/15/160 119/8/160
f 119/8/161 143/16/161 141/9/161
f 193/14/162 192/15/162 194/11/162
f 194/11/163 196/19/163 197/12/163
f 195/13/164 193/14/164 194/11/164
f 229/4/9 230/2/9 9/3/9
f 141/14/3 143/15/3 145/11/3
f 145/11/165 146/19/165 144/12/165
f 144/12/166 142/13/166 141/14/166
f 133/4/11 116/2/11 134/3/11
f 139/4/12 140/2/12 138/3/12
f 23/4/13 26/2/13 296/3/13
f 265/1/18 266/4/18 117/2/18
f 129/10/3 130/15/3 131/8/3
f 131/8/19 164/16/19 163/9/19
f 135/10/70 134/15/70 137/8/70
f 137/8/167 138/16/167 136/9/167
f 279/1/21 127/4/21 126/2/21
f 48/10/168 47/15/168 105/8/168
f 105/8/169 107/16/169 250/9/169
f 299/15/170 300/32/170 227/8/170
f 227/8/117 226/47/117 225/16/117
f 225/16/117 224/12/117 223/9/117
f 223/9/171 296/48/171 297/10/171
f 225/16/172 223/9/172 297/10/172
f 299/15/173 227/8/173 225/16/173
f 225/16/174 297/10/174 298/17/174
f 14/4/2 13/2/2 234/3/2
f 231/4/5 10/2/5 9/3/5
f 49/4/24 306/2/24 305/3/24
f 209/4/25 211/2/25 284/3/25
f 46/4/26 305/2/26 304/3/26
f 60/10/3 61/15/3 62/8/3
f 62/8/27 90/16/27 88/9/27
f 49/4/175 250/2/175 51/3/175
f 81/4/11 56/2/11 82/3/11
f 224/4/29 225/2/29 4/3/29
f 149/1/30 151/4/30 152/2/30
f 200/17/3 202/15/3 204/32/3
f 204/32/176 205/8/176 203/47/176
f 204/32/177 203/47/177 201/16/177
f 198/10/3 200/17/3 204/32/3
f 197/9/178 196/48/178 198/10/178
f 199/12/178 197/9/178 198/10/178
f 198/10/177 204/32/177 201/16/177
f 256/10/179 63/15/179 62/8/179
f 62/8/180 61/16/180 255/9/180
f 165/1/48 134/4/48 135/2/48
f 308/22/181 309/15/181 236/18/181
f 236/18/117 235/49/117 234/19/117
f 234/19/182 233/21/182 305/50/182
f 234/19/182 305/50/182 306/13/182
f 307/20/183 308/22/183 236/18/183
f 234/19/184 306/13/184 307/20/184
f 38/10/117 37/15/117 36/8/117
f 36/8/185 247/16/185 39/9/185
f 42/4/37 43/2/37 45/3/37
f 233/4/26 12/2/26 11/3/26
f 231/22/117 230/15/117 229/18/117
f 229/18/186 302/49/186 303/19/186
f 304/21/187 305/50/187 233/13/187
f 231/22/188 229/18/188 303/19/188
f 304/21/187 233/13/187 232/20/187
f 231/22/189 303/19/189 304/21/189
f 76/10/49 75/15/49 73/8/49
f 73/8/190 74/16/190 260/9/190
f 71/10/117 70/15/117 68/8/117
f 68/8/191 69/16/191 72/9/191
f 126/15/92 127/11/92 158/19/92
f 156/12/42 155/13/42 125/14/42
f 126/15/92 158/19/92 156/12/92
f 267/15/192 268/8/192 118/16/192
f 118/16/193 117/9/193 266/10/193
f 147/4/4 148/2/4 146/3/4
f 114/4/45 115/2/45 113/3/45
f 71/4/194 72/2/194 74/3/194
f 139/1/46 141/4/46 142/2/46
f 30/10/117 29/15/117 28/8/117
f 28/8/195 243/16/195 31/9/195
f 82/4/48 83/2/48 115/3/48
f 280/1/49 128/4/49 127/2/49
f 75/4/26 104/2/26 102/3/26
f 222/4/13 223/2/13 2/3/13
f 32/10/3 33/15/3 35/8/3
f 35/8/50 300/16/50 299/9/50
f 77/4/24 106/2/24 104/3/24
f 205/4/26 280/2/26 279/3/26
f 150/4/196 152/2/196 258/3/196
f 143/14/197 119/15/197 120/11/197
f 120/11/198 121/19/198 147/12/198
f 145/13/199 143/14/199 120/11/199
f 50/4/25 52/2/25 308/3/25
f 197/15/9 199/11/9 277/19/9
f 276/12/53 275/13/53 195/14/53
f 197/15/9 277/19/9 276/12/9
f 228/4/54 7/2/54 6/3/54
f 308/10/93 52/15/93 54/8/93
f 54/8/200 310/16/200 309/9/200
f 210/4/25 208/2/25 179/3/25
f 158/4/57 159/2/57 157/3/57
f 34/14/201 33/15/201 32/11/201
f 32/11/202 30/19/202 31/12/202
f 31/12/203 245/13/203 34/14/203
f 68/14/117 67/15/117 65/11/117
f 65/11/204 66/19/204 258/12/204
f 258/12/205 69/13/205 68/14/205
f 66/10/206 65/15/206 64/8/206
f 64/8/207 63/16/207 256/9/207
f 247/10/208 36/15/208 35/8/208
f 35/8/209 33/16/209 34/9/209
f 285/1/63 265/4/63 116/2/63
f 264/10/210 221/15/210 135/8/210
f 135/8/211 136/16/211 252/9/211
f 77/1/212 75/4/212 76/2/212
f 3/4/66 2/2/66 223/3/66
f 42/14/117 40/15/117 38/11/117
f 38/11/213 39/19/213 41/12/213
f 41/12/214 43/13/214 42/14/214
f 96/4/30 97/2/30 95/3/30
f 44/4/68 45/2/68 47/3/68
f 108/14/3 110/15/3 112/11/3
f 112/11/215 113/19/215 111/12/215
f 111/12/216 109/13/216 108/14/216
f 81/4/217 264/2/217 57/3/217
f 77/4/218 261/2/218 79/3/218
f 84/4/70 85/2/70 83/3/70
f 223/25/117 222/15/117 236/23/117
f 236/23/219 309/51/219 310/52/219
f 295/24/220 296/53/220 223/25/220
f 236/23/221 310/52/221 295/24/221
f 52/4/72 53/2/72 55/3/72
f 80/1/222 78/4/222 79/2/222
f 250/10/223 49/15/223 46/8/223
f 46/8/224 47/16/224 48/9/224
f 88/4/46 89/2/46 87/3/46
f 91/4/50 93/2/50 246/3/50
f 90/4/76 91/2/76 89/3/76
f 87/1/29 89/4/29 244/2/29
f 98/4/78 99/2/78 97/3/78
f 95/4/6 97/2/6 248/3/6
f 104/4/81 105/2/81 103/3/81
f 94/4/82 95/2/82 93/3/82
f 102/4/57 103/2/57 101/3/57
f 26/4/66 28/2/66 297/3/66
f 126/10/117 125/15/117 124/8/117
f 124/8/83 277/16/83 278/9/83
f 55/14/225 53/15/225 251/11/225
f 251/11/115 111/19/115 113/12/115
f 113/12/226 115/13/226 55/14/226
f 52/1/222 50/4/222 51/2/222
f 36/4/54 301/2/54 300/3/54
f 277/4/86 124/2/86 123/3/86
f 1/4/87 15/2/87 236/3/87
f 27/10/227 26/15/227 23/8/227
f 23/8/228 24/16/228 25/9/228
f 62/10/3 63/15/3 64/8/3
f 64/8/50 92/16/50 90/9/50
f 273/14/229 274/15/229 122/11/229
f 122/11/117 121/19/117 120/12/117
f 120/12/209 272/13/209 273/14/209
f 54/4/90 55/2/90 24/3/90
f 105/14/230 104/15/230 106/11/230
f 106/11/91 108/19/91 109/12/91
f 107/13/230 105/14/230 106/11/230
f 60/4/29 88/2/29 86/3/29
f 29/4/29 298/2/29 297/3/29
f 59/4/66 86/2/66 84/3/66
f 58/4/13 84/2/13 82/3/13
f 54/4/11 23/2/11 295/3/11
f 67/10/3 68/15/3 70/8/3
f 70/8/9 98/16/9 96/9/9
f 67/4/6 96/2/6 94/3/6
f 37/4/6 302/2/6 301/3/6
f 11/4/92 10/2/92 231/3/92
f 81/4/93 114/2/93 112/3/93
f 106/10/2 77/15/2 78/8/2
f 78/8/19 110/16/19 108/9/19
f 73/4/92 102/2/92 100/3/92
f 65/4/54 94/2/54 92/3/54
f 29/10/3 30/15/3 32/8/3
f 32/8/27 299/16/27 298/9/27
f 226/4/50 227/2/50 6/3/50
f 130/14/231 282/15/231 283/11/231
f 283/11/222 284/19/222 132/12/222
f 132/12/117 131/13/117 130/14/117
f 271/10/201 272/15/201 120/8/201
f 120/8/232 119/16/232 270/9/232
f 61/10/117 60/15/117 59/8/117
f 59/8/233 254/16/233 255/9/233
f 275/15/234 276/8/234 123/16/234
f 123/16/235 122/9/235 274/10/235
f 59/1/236 58/4/236 253/2/236
f 133/4/101 132/2/101 284/3/101
f 149/4/82 150/2/82 148/3/82
f 234/4/24 13/2/24 12/3/24
f 58/1/18 56/4/18 57/2/18
f 151/1/78 153/4/78 154/2/78
f 28/1/103 26/4/103 27/2/103
f 117/4/13 137/2/13 134/3/13
f 153/10/3 155/15/3 156/8/3
f 156/8/104 157/16/104 154/9/104
f 81/1/237 80/4/237 263/2/237
f 165/10/238 221/15/238 220/8/238
f 220/8/239 219/16/239 164/9/239
f 160/15/240 159/11/240 158/19/240
f 158/19/3 161/12/3 162/13/3
f 162/13/241 216/14/241 160/15/241
f 217/4/108 216/2/108 162/3/108
f 216/15/242 217/8/242 261/16/242
f 261/16/243 260/9/243 160/10/243
f 86/4/12 87/2/12 85/3/12
f 118/4/66 139/2/66 137/3/66
f 131/10/3 132/15/3 133/8/3
f 133/8/110 165/16/110 164/9/110
f 124/15/244 125/11/244 155/19/244
f 153/12/9 151/13/9 123/14/9
f 124/15/244 155/19/244 153/12/244
f 215/4/11 183/2/11 265/3/11
f 122/4/54 149/2/54 147/3/54
f 265/10/245 183/15/245 185/8/245
f 185/8/246 267/16/246 266/9/246
f 128/4/26 161/2/26 158/3/26
f 260/10/247 72/15/247 157/8/247
f 157/8/248 159/16/248 160/9/248
f 184/4/13 182/2/13 166/3/13
f 161/10/24 128/15/24 129/8/24
f 129/8/249 163/16/249 162/9/249
f 236/4/115 15/2/115 14/3/115
f 115/4/116 83/2/116 24/3/116
f 170/28/117 169/15/117 168/54/117
f 168/54/117 167/33/117 166/55/117
f 166/55/117 181/34/117 180/56/117
f 180/56/117 179/35/117 178/26/117
f 178/26/117 177/57/117 176/58/117
f 176/58/117 175/59/117 174/27/117
f 174/27/117 173/60/117 172/61/117
f 172/61/117 171/62/117 170/28/117
f 170/28/117 168/54/117 166/55/117
f 166/55/117 180/56/117 178/26/117
f 178/26/117 176/58/117 174/27/117
f 174/27/117 172/61/117 170/28/117
f 170/28/117 166/55/117 178/26/117
f 212/31/3 214/15/3 182/63/3
f 182/63/3 184/64/3 186/29/3
f 186/29/250 187/65/250 188/66/250
f 186/29/251 188/66/251 185/67/251
f 212/31/3 182/63/3 186/29/3
f 215/68/252 213/69/252 212/31/252
f 186/29/253 185/67/253 183/30/253
f 183/30/254 215/68/254 212/31/254
f 269/15/255 270/8/255 119/16/255
f 119/16/47 118/9/47 268/10/47
f 278/1/92 201/4/92 203/2/92
f 285/10/93 284/15/93 211/8/93
f 211/8/3 213/16/3 215/9/3
f 140/10/3 142/15/3 144/8/3
f 144/8/256 255/16/256 254/9/256
f 227/14/257 300/15/257 301/11/257
f 301/11/258 302/19/258 229/12/258
f 229/12/117 228/13/117 227/14/117
f 187/25/3 189/15/3 190/23/3
f 190/23/259 192/51/259 193/52/259
f 191/24/122 188/53/122 187/25/122
f 190/23/259 193/52/259 191/24/259
f 206/17/3 208/15/3 210/32/3
f 210/32/260 212/8/260 213/47/260
f 210/32/260 213/47/260 211/16/260
f 204/10/3 206/17/3 210/32/3
f 207/9/261 205/48/261 204/10/261
f 210/32/262 211/16/262 209/12/262
f 209/12/123 207/9/123 204/10/123
f 91/4/263 245/2/263 244/3/263
f 181/4/11 166/2/11 182/3/11
f 192/4/50 190/2/50 170/3/50
f 186/4/66 184/2/66 167/3/66
f 190/4/27 189/2/27 169/3/27
f 196/4/6 194/2/6 172/3/6
f 200/4/5 198/2/5 174/3/5
f 198/4/9 196/2/9 173/3/9
f 202/4/92 200/2/92 175/3/92
f 194/4/54 192/2/54 171/3/54
f 206/4/24 204/2/24 177/3/24
f 204/4/26 202/2/26 176/3/26
f 208/4/2 206/2/2 178/3/2
f 152/1/9 154/4/9 259/2/9
f 95/4/264 247/2/264 246/3/264
f 180/10/93 181/15/93 214/8/93
f 214/8/117 212/16/117 210/9/117
f 24/10/265 83/15/265 85/8/265
f 85/8/266 27/16/266 25/9/266
f 249/10/5 99/15/5 101/8/5
f 101/8/267 43/16/267 41/9/267
f 259/1/5 154/4/5 157/2/5
f 138/14/268 140/15/268 254/11/268
f 254/11/269 253/19/269 252/12/269
f 252/12/270 136/13/270 138/14/270
f 262/10/271 218/15/271 219/8/271
f 219/8/272 220/16/272 263/9/272
f 220/1/273 221/4/273 264/2/273
f 199/4/5 201/2/5 278/3/5
f 150/4/274 66/2/274 257/3/274
f 217/1/275 218/4/275 262/2/275
f 45/1/133 103/4/133 105/2/133
f 281/10/2 207/15/2 209/8/2
f 209/8/19 283/16/19 282/9/19
f 40/10/3 42/15/3 44/8/3
f 44/8/135 304/16/135 303/9/135
f 99/4/9 249/2/9 248/3/9
f 207/4/24 281/2/24 280/3/24
f 269/10/161 188/15/161 191/8/161
f 191/8/276 271/16/276 270/9/276
f 272/10/277 271/15/277 191/8/277
f 191/8/50 193/16/50 273/9/50
f 251/10/278 250/15/278 107/8/278
f 107/8/3 109/16/3 111/9/3
f 146/15/50 148/11/50 257/19/50
f 257/19/279 256/12/279 255/13/279
f 255/13/280 144/14/280 146/15/280
f 168/10/29 169/15/29 189/8/29
f 189/8/117 187/16/117 186/9/117
f 267/10/281 185/15/281 188/8/281
f 188/8/282 269/16/282 268/9/282
f 273/10/283 193/15/283 195/8/283
f 195/8/284 275/16/284 274/9/284
f 100/4/104 101/2/104 99/3/104
f 217/10/285 163/15/285 164/8/285
f 164/8/286 219/16/286 218/9/286
f 128/14/212 280/15/212 281/11/212
f 281/11/287 282/19/287 130/12/287
f 130/12/117 129/13/117 128/14/117
f 43/1/145 101/4/145 103/2/145
f 226/4/27 5/2/27 4/3/27
f 228/4/6 229/2/6 8/3/6
f 80/4/25 112/2/25 110/3/25
f 85/4/146 87/2/146 243/3/146
f 37/10/3 38/15/3 40/8/3
f 40/8/147 303/16/147 302/9/147
f 249/8/288 41/16/288 39/9/288
f 249/8/289 39/9/289 247/10/289
f 251/4/290 53/2/290 51/3/290
f 243/1/291 244/4/291 245/2/291
f 294/16/292 20/9/292 19/10/292
f 252/4/293 253/2/293 57/3/293
f 72/1/294 69/4/294 258/2/294
f 262/1/295 263/4/295 79/2/295
f 17/35/296 288/12/296 287/70/296
f 287/70/297 286/60/297 16/71/297
f 287/70/298 16/71/298 237/15/298
f 17/35/299 287/70/299 237/15/299
f 17/35/300 237/15/300 238/33/300
l 17 240
l 240 289
l 293 19
