# Blender 5.1.2
# www.blender.org
mtllib RoundedWedge.mtl
o ROUNDEDWEDGE
v 0.500000 0.000000 0.000000
v 0.500000 1.000000 0.000000
v 0.000000 1.000000 0.000000
v 0.000000 0.000000 0.000000
v 0.038060 0.000000 0.308658
v 0.038060 1.000000 0.308658
v 0.308658 0.000000 0.038060
v 0.308658 1.000000 0.038060
v 0.000000 1.000000 0.497106
v 0.000285 1.000000 0.497106
v 0.000000 0.000000 0.497106
v 0.000285 0.000000 0.497106
v 0.508049 1.000000 0.000000
v 0.508038 1.000000 0.000792
v 0.508038 0.000000 0.000792
v 0.508049 0.000000 0.000000
vn -0.0000 1.0000 -0.0000
vn -1.0000 -0.0000 -0.0000
vn -0.0000 -0.0000 -1.0000
vn 0.9805 -0.0000 0.1965
vn -0.0000 -1.0000 -0.0000
vn -0.0980 -0.0000 0.9952
vn 0.7071 -0.0000 0.7071
vn 0.1951 -0.0000 0.9808
vt 0.491962 0.000792
vt 0.491951 0.000000
vt 0.500000 0.000000
vt 1.000000 1.000000
vt 0.000000 0.502894
vt 1.000000 0.502894
vt 1.000000 0.000000
vt 0.000000 0.500000
vt 0.000000 0.000000
vt 0.837680 1.000000
vt 0.998851 0.000000
vt 0.998851 1.000000
vt 0.038060 0.308658
vt 0.000000 0.497106
vt 0.961940 0.308658
vt 0.691342 0.038060
vt 0.508049 0.000000
vt 0.508038 0.000792
vt 0.010855 1.000000
vt 0.010855 0.000000
vt 1.000000 0.508049
vt 1.000000 0.500000
vt 0.301866 0.000000
vt 0.837680 0.000000
vt 0.000000 1.000000
vt 0.308658 0.038060
vt 0.000285 0.497106
vt 1.000000 0.497106
vt 0.999715 0.497106
vt 0.301866 1.000000
vt 0.983903 1.000000
s 0
usemtl Material
f 14/1/1 13/2/1 2/3/1
f 3/4/2 11/5/2 9/6/2
f 3/7/3 1/8/3 4/9/3
f 5/10/4 10/11/4 12/12/4
f 4/9/5 5/13/5 11/14/5
f 3/7/1 6/15/1 8/16/1
f 1/3/5 16/17/5 15/18/5
f 1/19/6 14/9/6 2/20/6
f 13/21/3 1/4/3 2/22/3
f 5/10/7 8/23/7 6/24/7
f 3/4/2 4/25/2 11/5/2
f 3/7/3 2/22/3 1/8/3
f 5/10/4 6/24/4 10/11/4
f 4/9/5 1/3/5 7/26/5
f 5/13/5 12/27/5 11/14/5
f 4/9/5 7/26/5 5/13/5
f 3/7/1 9/28/1 10/29/1
f 3/7/1 10/29/1 6/15/1
f 8/16/1 2/3/1 3/7/1
f 2/20/8 8/23/8 7/30/8
f 1/19/6 15/25/6 14/9/6
f 2/20/8 7/30/8 1/19/8
f 13/21/3 16/31/3 1/4/3
f 5/10/7 7/30/7 8/23/7
