# Blender 5.1.2
# www.blender.org
mtllib RoundWedge.mtl
o ROUNDWEDGE
v 0.000000 1.000000 1.000000
v 0.000000 0.000000 1.000000
v 0.000000 1.000000 -0.000000
v 1.000000 1.000000 0.000000
v 0.000000 0.000000 -0.000000
v 1.000000 0.000000 0.000000
v 0.344084 1.000000 1.000000
v 1.000000 1.000000 0.344084
v 0.627804 1.000000 0.853568
v 0.853568 1.000000 0.627804
v 1.000000 0.000000 0.344084
v 0.344084 0.000000 1.000000
v 0.853568 0.000000 0.627804
v 0.627804 0.000000 0.853568
vn -1.0000 -0.0000 -0.0000
vn -0.0000 -0.0000 -1.0000
vn 0.8886 -0.0000 0.4586
vn 0.7071 -0.0000 0.7071
vn 0.4586 -0.0000 0.8886
vn -0.0000 1.0000 -0.0000
vn -0.0000 -0.0000 1.0000
vn 1.0000 -0.0000 -0.0000
vn -0.0000 -1.0000 -0.0000
vt 0.002577 0.999519
vt 0.994955 0.007142
vt 0.994955 0.999519
vt 1.000000 0.000000
vt 0.000000 1.000000
vt 0.000000 0.000000
vt 0.657497 0.995613
vt 0.376401 0.004861
vt 0.657497 0.004861
vt 0.850752 0.996589
vt 0.626434 0.002997
vt 0.850752 0.002997
vt 0.626434 0.996589
vt 0.344532 0.002998
vt 0.988791 0.954830
vt 0.042481 0.623166
vt 0.413612 0.135182
vt 0.002653 0.996589
vt 0.344532 0.996589
vt 0.998399 0.004861
vt 0.998399 0.995613
vt 0.634752 0.145943
vt 0.992351 0.627370
vt 0.037805 0.953058
vt 0.002577 0.007142
vt 1.000000 1.000000
vt 0.376401 0.995613
vt 0.678306 0.004257
vt 0.988789 0.011197
vt 0.029869 0.967874
vt 0.193868 0.346989
vt 0.002653 0.002998
vt 0.037832 0.008334
vt 0.364540 0.008292
vt 0.850883 0.358834
vt 0.994520 0.954326
s 0
usemtl Material
f 3/1/1 2/2/1 1/3/1
f 5/4/2 4/5/2 6/6/2
f 8/7/3 13/8/3 11/9/3
f 10/10/4 14/11/4 13/12/4
f 9/13/5 12/14/5 14/11/5
f 3/15/6 7/16/6 10/17/6
f 1/18/7 12/14/7 7/19/7
f 8/7/8 6/20/8 4/21/8
f 13/22/9 12/23/9 5/24/9
f 3/1/1 5/25/1 2/2/1
f 5/4/2 3/26/2 4/5/2
f 8/7/3 10/27/3 13/8/3
f 10/10/4 9/13/4 14/11/4
f 9/13/5 7/19/5 12/14/5
f 8/28/6 4/29/6 3/15/6
f 3/15/6 1/30/6 7/16/6
f 7/16/6 9/31/6 10/17/6
f 10/17/6 8/28/6 3/15/6
f 1/18/7 2/32/7 12/14/7
f 8/7/8 11/9/8 6/20/8
f 6/33/9 11/34/9 13/22/9
f 13/22/9 14/35/9 12/23/9
f 12/23/9 2/36/9 5/24/9
f 5/24/9 6/33/9 13/22/9
