# Blender 5.1.2
# www.blender.org
mtllib RoundBound.mtl
o ROUNDBOUND
v 1.000000 0.000000 0.000000
v 1.000000 0.000000 1.000000
v 0.000000 0.000000 0.000000
v 0.000000 0.000000 1.000000
v 1.000000 0.296972 0.000000
v 1.000000 0.450000 0.340063
v 1.000000 0.369642 0.057386
v 1.000000 0.424176 0.178572
v 1.000000 0.450000 0.659937
v 1.000000 0.296972 1.000000
v 1.000000 0.424176 0.821428
v 1.000000 0.369642 0.942614
v 0.000000 0.450000 0.340063
v 0.000000 0.296972 0.000000
v 0.000000 0.424176 0.178572
v 0.000000 0.369642 0.057386
v 0.000000 0.296972 1.000000
v 0.000000 0.450000 0.659937
v 0.000000 0.369642 0.942614
v 0.000000 0.424176 0.821428
vn -0.0000 -1.0000 -0.0000
vn -0.0000 0.9875 0.1579
vn -0.0000 0.9119 0.4104
vn -0.0000 0.6197 0.7848
vn -0.0000 0.9875 -0.1579
vn -0.0000 0.9119 -0.4104
vn -0.0000 0.6197 -0.7848
vn -0.0000 -0.0000 -1.0000
vn 1.0000 -0.0000 -0.0000
vn -0.0000 1.0000 -0.0000
vn -0.0000 -0.0000 1.0000
vn -1.0000 -0.0000 -0.0000
vt 1.000000 0.000000
vt 0.000000 1.000000
vt 0.000000 0.000000
vt 0.000109 0.338707
vt 0.995362 0.177983
vt 0.995362 0.338707
vt 0.000109 0.177983
vt 0.995362 0.057371
vt 0.000109 0.057371
vt 0.995362 0.000258
vt 0.995362 0.657063
vt 0.000109 0.817787
vt 0.000109 0.657063
vt 0.995362 0.817787
vt 0.000109 0.938398
vt 0.995362 0.938398
vt 0.000109 0.995512
vt 0.999904 0.182893
vt 0.003673 -0.001933
vt 0.999904 -0.001933
vt 0.820728 0.427408
vt 0.059405 0.373068
vt 0.002223 0.004741
vt 0.999613 0.174409
vt 0.000109 -0.002244
vt 0.999613 -0.002244
vt 0.820356 0.370129
vt 0.060577 0.322692
vt 0.003512 0.001149
vt 1.000000 1.000000
vt 0.000109 0.000258
vt 0.995362 0.995512
vt 0.003673 0.182893
vt 0.998665 0.004741
vt 0.998665 0.300656
vt 0.941483 0.373068
vt 0.659812 0.453140
vt 0.341076 0.453140
vt 0.180160 0.427408
vt 0.002223 0.300656
vt 0.000109 0.174409
vt 0.997932 0.001149
vt 0.997932 0.259477
vt 0.940866 0.322692
vt 0.659766 0.392593
vt 0.341677 0.392593
vt 0.181088 0.370129
vt 0.003512 0.259477
s 0
usemtl Material
f 1/1/1 4/2/1 3/3/1
f 18/4/2 11/5/2 9/6/2
f 20/7/3 12/8/3 11/5/3
f 19/9/4 10/10/4 12/8/4
f 6/11/5 15/12/5 13/13/5
f 8/14/6 16/15/6 15/12/6
f 7/16/7 14/17/7 16/15/7
f 14/18/8 1/19/8 3/20/8
f 8/21/9 12/22/9 2/23/9
f 13/13/10 9/6/10 6/11/10
f 10/24/11 4/25/11 2/26/11
f 20/27/12 16/28/12 3/29/12
f 1/1/1 2/30/1 4/2/1
f 18/4/2 20/7/2 11/5/2
f 20/7/3 19/9/3 12/8/3
f 19/9/4 17/31/4 10/10/4
f 6/11/5 8/14/5 15/12/5
f 8/14/6 7/16/6 16/15/6
f 7/16/7 5/32/7 14/17/7
f 14/18/8 5/33/8 1/19/8
f 2/23/9 1/34/9 5/35/9
f 5/35/9 7/36/9 8/21/9
f 8/21/9 6/37/9 9/38/9
f 9/38/9 11/39/9 12/22/9
f 12/22/9 10/40/9 2/23/9
f 2/23/9 5/35/9 8/21/9
f 8/21/9 9/38/9 12/22/9
f 13/13/10 18/4/10 9/6/10
f 10/24/11 17/41/11 4/25/11
f 3/29/12 4/42/12 17/43/12
f 17/43/12 19/44/12 20/27/12
f 20/27/12 18/45/12 13/46/12
f 13/46/12 15/47/12 16/28/12
f 16/28/12 14/48/12 3/29/12
f 3/29/12 17/43/12 20/27/12
f 20/27/12 13/46/12 16/28/12
