# Blender 5.1.2
# www.blender.org
mtllib Tit.mtl
o TIT
v 1.000000 1.000000 0.000000
v 1.000000 1.000000 1.000000
v 0.000000 1.000000 0.000000
v 0.000000 1.000000 1.000000
v 0.829184 0.800000 0.170816
v 1.000000 0.970816 0.000000
v 0.899262 0.805774 0.100738
v 0.961497 0.838503 0.038503
v 0.994226 0.900738 0.005774
v 0.829184 0.800000 0.829184
v 1.000000 0.970816 1.000000
v 0.899262 0.805774 0.899262
v 0.961497 0.838503 0.961497
v 0.994226 0.900738 0.994226
v 0.000000 0.970816 0.000000
v 0.170816 0.800000 0.170816
v 0.005774 0.900738 0.005774
v 0.038503 0.838503 0.038503
v 0.100738 0.805774 0.100738
v 0.170816 0.800000 0.829184
v 0.000000 0.970816 1.000000
v 0.100738 0.805774 0.899262
v 0.038503 0.838503 0.961497
v 0.005774 0.900738 0.994226
vn -0.0000 1.0000 -0.0000
vn -0.0821 -0.9966 -0.0000
vn -0.4654 -0.8851 -0.0000
vn -0.8851 -0.4654 -0.0000
vn -0.9966 -0.0821 -0.0000
vn -0.0000 -0.9966 -0.0821
vn -0.0000 -0.8851 -0.4654
vn -0.0000 -0.4654 -0.8851
vn -0.0000 -0.0821 -0.9966
vn -0.0000 -0.9966 0.0821
vn -0.0000 -0.8851 0.4654
vn -0.0000 -0.4654 0.8851
vn -0.0000 -0.0821 0.9966
vn 0.0821 -0.9966 -0.0000
vn 0.4654 -0.8851 -0.0000
vn 0.8851 -0.4654 -0.0000
vn 0.9966 -0.0821 -0.0000
vn -0.0000 -0.0000 -1.0000
vn 1.0000 -0.0000 -0.0000
vn -0.0000 -1.0000 -0.0000
vn -0.0000 -0.0000 1.0000
vn -1.0000 -0.0000 -0.0000
vt 1.000000 0.000000
vt 0.000000 1.000000
vt 0.000000 0.000000
vt 0.829684 0.795577
vt 0.097390 0.801382
vt 0.167838 0.795577
vt 0.900133 0.801382
vt 0.034825 0.834283
vt 0.962697 0.834283
vt 0.001924 0.896847
vt 1.001403 0.967296
vt -0.003881 0.967296
vt 0.830960 0.794458
vt 0.105260 0.800211
vt 0.175075 0.794458
vt 0.900774 0.800211
vt 0.043259 0.832816
vt 0.962775 0.832816
vt 0.010655 0.894816
vt 1.001132 0.964631
vt 0.004902 0.964631
vt 0.827685 0.800893
vt 0.103966 0.806630
vt 0.173590 0.800893
vt 0.897309 0.806630
vt 0.042135 0.839146
vt 0.959141 0.839146
vt 0.009619 0.900977
vt 0.997393 0.970601
vt 0.003882 0.970601
vt 0.827355 0.795586
vt 0.102204 0.801334
vt 0.171966 0.795586
vt 0.897116 0.801334
vt 0.040251 0.833914
vt 0.959070 0.833914
vt 0.007671 0.895868
vt 0.997398 0.965629
vt 0.001923 0.965629
vt 1.001132 0.993704
vt 0.997398 0.994681
vt 0.829184 0.170816
vt 0.170816 0.829184
vt 0.170816 0.170816
vt 0.997393 0.999595
vt 1.001403 0.996634
vt 1.000000 1.000000
vt 0.995598 0.896847
vt 0.995379 0.894816
vt 0.991657 0.900977
vt 0.991650 0.895868
vt 0.004902 0.993704
vt 0.001923 0.994681
vt 0.829184 0.829184
vt 0.003882 0.999595
vt -0.003881 0.996634
s 0
usemtl Material
f 3/1/1 2/2/1 1/3/1
f 20/4/2 19/5/2 16/6/2
f 22/7/3 18/8/3 19/5/3
f 23/9/4 17/10/4 18/8/4
f 17/10/5 21/11/5 15/12/5
f 16/13/6 7/14/6 5/15/6
f 19/16/7 8/17/7 7/14/7
f 18/18/8 9/19/8 8/17/8
f 9/19/9 15/20/9 6/21/9
f 10/22/10 22/23/10 20/24/10
f 12/25/11 23/26/11 22/23/11
f 13/27/12 24/28/12 23/26/12
f 24/28/13 11/29/13 21/30/13
f 5/31/14 12/32/14 10/33/14
f 7/34/15 13/35/15 12/32/15
f 8/36/16 14/37/16 13/35/16
f 14/37/17 6/38/17 11/39/17
f 3/40/18 6/21/18 15/20/18
f 1/41/19 11/39/19 6/38/19
f 5/42/20 20/43/20 16/44/20
f 2/45/21 21/30/21 11/29/21
f 4/46/22 15/12/22 21/11/22
f 3/1/1 4/47/1 2/2/1
f 20/4/2 22/7/2 19/5/2
f 22/7/3 23/9/3 18/8/3
f 23/9/4 24/48/4 17/10/4
f 17/10/5 24/48/5 21/11/5
f 16/13/6 19/16/6 7/14/6
f 19/16/7 18/18/7 8/17/7
f 18/18/8 17/49/8 9/19/8
f 9/19/9 17/49/9 15/20/9
f 10/22/10 12/25/10 22/23/10
f 12/25/11 13/27/11 23/26/11
f 13/27/12 14/50/12 24/28/12
f 24/28/13 14/50/13 11/29/13
f 5/31/14 7/34/14 12/32/14
f 7/34/15 8/36/15 13/35/15
f 8/36/16 9/51/16 14/37/16
f 14/37/17 9/51/17 6/38/17
f 3/40/18 1/52/18 6/21/18
f 1/41/19 2/53/19 11/39/19
f 5/42/20 10/54/20 20/43/20
f 2/45/21 4/55/21 21/30/21
f 4/46/22 3/56/22 15/12/22
